<svg id="svg" xmlns="http://www.w3.org/2000/svg" xmlns:xlink="http://www.w3.org/1999/xlink" width="400" height="280.8" viewBox="0, 0, 400,280.8"><g id="svgg"><path id="path0" d="M100.281 0.281 C 100.281 0.445,99.345 0.562,98.034 0.562 C 96.723 0.562,95.787 0.679,95.787 0.843 C 95.787 0.997,95.060 1.124,94.171 1.125 C 93.283 1.126,92.194 1.316,91.752 1.547 C 91.309 1.777,90.338 1.966,89.595 1.966 C 88.767 1.966,88.079 2.130,87.821 2.388 C 87.589 2.619,86.972 2.809,86.450 2.809 C 85.928 2.809,85.255 2.995,84.955 3.221 C 84.655 3.448,83.932 3.638,83.348 3.643 C 82.669 3.648,82.227 3.804,82.124 4.073 C 82.019 4.346,81.584 4.494,80.889 4.494 C 80.298 4.494,79.626 4.684,79.394 4.916 C 79.162 5.147,78.517 5.337,77.961 5.337 C 77.320 5.337,76.889 5.492,76.787 5.758 C 76.696 5.996,76.278 6.180,75.829 6.180 C 75.391 6.180,74.955 6.306,74.860 6.461 C 74.764 6.615,74.402 6.742,74.054 6.742 C 73.706 6.742,73.177 6.927,72.877 7.154 C 72.577 7.381,72.063 7.570,71.734 7.575 C 71.405 7.580,70.979 7.774,70.787 8.006 C 70.594 8.237,70.224 8.427,69.963 8.427 C 69.703 8.427,69.244 8.613,68.944 8.839 C 68.644 9.066,68.110 9.256,67.758 9.261 C 67.406 9.266,67.044 9.459,66.956 9.691 C 66.867 9.923,66.487 10.112,66.113 10.112 C 65.738 10.112,65.359 10.302,65.270 10.534 C 65.181 10.765,64.806 10.955,64.436 10.955 C 64.067 10.955,63.764 11.081,63.764 11.236 C 63.764 11.390,63.520 11.517,63.222 11.517 C 62.924 11.517,62.508 11.675,62.297 11.868 C 61.734 12.382,60.127 13.202,59.682 13.202 C 59.471 13.202,59.196 13.360,59.073 13.554 C 58.949 13.747,58.238 14.221,57.492 14.607 C 55.022 15.885,54.775 16.040,54.775 16.307 C 54.775 16.454,54.541 16.573,54.255 16.573 C 53.968 16.573,53.426 16.857,53.049 17.205 C 52.672 17.553,51.834 18.090,51.185 18.399 C 50.537 18.708,50.005 19.119,50.003 19.312 C 50.001 19.505,49.743 19.663,49.429 19.663 C 49.116 19.663,48.786 19.853,48.697 20.084 C 48.608 20.316,48.359 20.506,48.144 20.506 C 47.929 20.506,47.753 20.695,47.753 20.927 C 47.753 21.159,47.555 21.348,47.313 21.348 C 46.836 21.348,45.297 22.415,43.978 23.659 C 43.523 24.088,42.982 24.438,42.775 24.438 C 42.568 24.438,42.325 24.628,42.236 24.860 C 42.147 25.091,41.899 25.281,41.683 25.281 C 41.468 25.281,41.292 25.471,41.292 25.702 C 41.292 25.934,41.103 26.124,40.871 26.124 C 40.639 26.124,40.449 26.282,40.449 26.476 C 40.449 26.670,40.088 26.989,39.646 27.185 C 39.204 27.380,37.348 28.991,35.521 30.765 C 33.695 32.538,32.097 33.989,31.971 33.989 C 31.845 33.989,31.742 34.178,31.742 34.410 C 31.742 34.642,31.552 34.831,31.320 34.831 C 31.088 34.831,30.899 34.958,30.899 35.113 C 30.899 35.267,30.421 35.868,29.837 36.447 C 28.477 37.794,26.966 39.738,26.966 40.139 C 26.966 40.310,26.777 40.449,26.545 40.449 C 26.313 40.449,26.124 40.639,26.124 40.871 C 26.124 41.103,25.934 41.292,25.702 41.292 C 25.471 41.292,25.281 41.482,25.281 41.713 C 25.281 41.945,25.091 42.135,24.860 42.135 C 24.628 42.135,24.438 42.324,24.438 42.556 C 24.438 42.788,24.331 42.978,24.200 42.978 C 24.069 42.978,23.848 43.218,23.709 43.512 C 23.569 43.806,23.019 44.576,22.486 45.222 C 21.442 46.487,20.900 47.324,20.618 48.104 C 20.520 48.374,20.265 48.596,20.052 48.596 C 19.838 48.596,19.663 48.785,19.663 49.017 C 19.663 49.249,19.539 49.438,19.387 49.438 C 19.236 49.438,19.035 49.745,18.941 50.120 C 18.847 50.495,18.591 50.870,18.374 50.954 C 18.156 51.038,17.978 51.300,17.978 51.536 C 17.978 51.773,17.860 51.966,17.716 51.966 C 17.571 51.966,17.365 52.251,17.256 52.598 C 17.148 52.946,16.981 53.294,16.886 53.371 C 16.636 53.575,16.053 54.536,15.737 55.267 C 15.586 55.614,15.334 55.899,15.175 55.899 C 15.017 55.899,14.888 56.215,14.888 56.601 C 14.888 57.038,14.728 57.303,14.466 57.303 C 14.235 57.303,14.045 57.541,14.045 57.831 C 14.045 58.121,13.855 58.516,13.624 58.708 C 13.392 58.900,13.202 59.216,13.202 59.410 C 13.202 59.604,13.013 59.920,12.781 60.112 C 12.549 60.305,12.360 60.699,12.360 60.989 C 12.360 61.280,12.257 61.517,12.133 61.517 C 11.856 61.517,10.955 63.501,10.955 64.109 C 10.955 64.350,10.765 64.619,10.534 64.708 C 10.302 64.797,10.112 65.136,10.112 65.461 C 10.112 65.786,9.923 66.241,9.691 66.473 C 9.459 66.704,9.270 67.122,9.270 67.401 C 9.270 67.680,9.080 68.066,8.848 68.258 C 8.617 68.451,8.427 68.854,8.427 69.156 C 8.427 69.457,8.237 69.893,8.006 70.124 C 7.774 70.356,7.584 70.853,7.584 71.228 C 7.584 71.603,7.459 71.910,7.307 71.910 C 7.154 71.910,6.948 72.416,6.849 73.034 C 6.751 73.652,6.560 74.157,6.425 74.157 C 6.290 74.157,6.180 74.586,6.180 75.110 C 6.180 75.698,6.018 76.125,5.758 76.225 C 5.509 76.321,5.337 76.743,5.337 77.258 C 5.337 77.738,5.147 78.320,4.916 78.551 C 4.684 78.783,4.494 79.391,4.494 79.901 C 4.494 80.412,4.305 80.987,4.073 81.180 C 3.841 81.372,3.652 81.965,3.652 82.498 C 3.652 83.031,3.462 83.657,3.230 83.888 C 2.999 84.120,2.809 84.791,2.809 85.379 C 2.809 85.987,2.627 86.599,2.388 86.798 C 2.110 87.028,1.966 87.655,1.966 88.635 C 1.966 89.465,1.830 90.167,1.658 90.225 C 1.488 90.281,1.281 91.180,1.198 92.222 C 1.114 93.264,0.937 94.184,0.804 94.266 C 0.671 94.348,0.562 95.293,0.562 96.365 C 0.562 97.477,0.441 98.315,0.281 98.315 C 0.097 98.315,0.000 104.026,0.000 114.888 C 0.000 125.749,0.097 131.461,0.281 131.461 C 0.445 131.461,0.562 132.391,0.562 133.691 C 0.562 134.918,0.671 135.989,0.804 136.071 C 0.937 136.154,1.114 137.073,1.198 138.115 C 1.281 139.157,1.488 140.056,1.658 140.113 C 1.828 140.169,1.966 140.828,1.966 141.576 C 1.966 142.412,2.129 143.100,2.388 143.359 C 2.622 143.593,2.809 144.279,2.809 144.904 C 2.809 145.528,2.996 146.215,3.230 146.449 C 3.462 146.680,3.652 147.325,3.652 147.882 C 3.652 148.522,3.806 148.953,4.073 149.056 C 4.360 149.166,4.494 149.615,4.494 150.460 C 4.494 151.306,4.629 151.755,4.916 151.865 C 5.172 151.963,5.337 152.388,5.337 152.949 C 5.337 153.511,5.502 153.936,5.758 154.034 C 6.005 154.129,6.180 154.550,6.180 155.051 C 6.180 155.522,6.288 156.126,6.419 156.394 C 7.086 157.751,7.554 158.925,7.707 159.621 C 7.800 160.046,8.000 160.393,8.151 160.393 C 8.303 160.393,8.427 160.713,8.427 161.104 C 8.427 161.495,8.617 161.888,8.848 161.977 C 9.080 162.066,9.270 162.426,9.270 162.777 C 9.270 163.127,9.459 163.572,9.691 163.764 C 9.923 163.956,10.112 164.399,10.112 164.747 C 10.112 165.096,10.302 165.538,10.534 165.730 C 10.765 165.923,10.955 166.242,10.955 166.441 C 10.955 166.889,12.364 169.670,12.847 170.175 C 13.042 170.379,13.202 170.730,13.202 170.956 C 13.202 171.181,13.392 171.439,13.624 171.528 C 13.855 171.617,14.045 171.996,14.045 172.370 C 14.045 172.745,14.223 173.120,14.441 173.203 C 14.659 173.287,14.914 173.662,15.008 174.037 C 15.102 174.412,15.303 174.719,15.455 174.719 C 15.606 174.719,15.730 174.895,15.730 175.110 C 15.730 175.326,15.920 175.574,16.152 175.663 C 16.383 175.752,16.573 176.087,16.573 176.408 C 16.573 176.729,16.889 177.332,17.275 177.748 C 17.662 178.165,17.978 178.659,17.978 178.846 C 17.978 179.033,18.136 179.287,18.329 179.410 C 18.723 179.662,19.248 180.446,19.657 181.390 C 19.807 181.738,20.059 182.022,20.218 182.022 C 20.376 182.022,20.506 182.212,20.506 182.444 C 20.506 182.676,20.695 182.865,20.927 182.865 C 21.159 182.865,21.348 183.092,21.348 183.369 C 21.348 183.646,21.838 184.398,22.436 185.040 C 23.035 185.681,23.608 186.371,23.711 186.572 C 24.303 187.729,24.760 188.312,26.072 189.583 C 26.873 190.359,27.530 191.093,27.533 191.213 C 27.536 191.334,28.294 192.230,29.219 193.205 C 30.143 194.179,30.899 195.096,30.899 195.241 C 30.899 195.387,31.088 195.506,31.320 195.506 C 31.552 195.506,31.742 195.695,31.742 195.927 C 31.742 196.159,31.931 196.348,32.163 196.348 C 32.395 196.348,32.584 196.538,32.584 196.770 C 32.584 197.001,32.774 197.191,33.006 197.191 C 33.237 197.191,33.432 197.349,33.439 197.542 C 33.445 197.735,33.837 198.209,34.309 198.596 C 34.781 198.982,35.652 199.740,36.243 200.281 C 37.809 201.712,38.145 201.966,38.471 201.966 C 38.632 201.966,38.764 202.156,38.764 202.388 C 38.764 202.619,38.954 202.809,39.185 202.809 C 39.417 202.809,39.607 202.999,39.607 203.230 C 39.607 203.462,39.739 203.652,39.901 203.652 C 40.063 203.652,40.474 203.939,40.814 204.290 C 41.154 204.641,41.906 205.241,42.484 205.624 C 43.062 206.007,43.536 206.415,43.537 206.531 C 43.538 206.647,43.658 206.742,43.803 206.742 C 43.948 206.742,44.482 207.121,44.989 207.584 C 45.497 208.048,46.136 208.427,46.411 208.427 C 46.685 208.427,46.910 208.617,46.910 208.848 C 46.910 209.080,47.100 209.270,47.331 209.270 C 47.563 209.270,47.753 209.400,47.753 209.559 C 47.753 209.719,47.974 209.931,48.244 210.031 C 48.515 210.131,49.296 210.636,49.980 211.153 C 50.663 211.670,51.517 212.167,51.876 212.257 C 52.234 212.347,52.528 212.596,52.528 212.811 C 52.528 213.026,52.785 213.202,53.099 213.202 C 53.413 213.202,53.742 213.392,53.831 213.624 C 53.920 213.855,54.153 214.045,54.350 214.045 C 54.546 214.045,54.864 214.235,55.056 214.466 C 55.249 214.698,55.643 214.888,55.933 214.888 C 56.223 214.888,56.461 215.001,56.461 215.139 C 56.461 215.278,56.935 215.635,57.514 215.933 C 59.567 216.989,60.535 217.559,60.627 217.767 C 60.679 217.883,61.013 217.978,61.370 217.978 C 61.727 217.978,62.091 218.167,62.180 218.399 C 62.269 218.631,62.648 218.820,63.023 218.820 C 63.397 218.820,63.777 219.010,63.866 219.242 C 63.955 219.473,64.334 219.663,64.708 219.663 C 65.083 219.663,65.462 219.853,65.551 220.084 C 65.640 220.316,66.017 220.506,66.389 220.506 C 66.762 220.506,67.223 220.695,67.416 220.927 C 67.608 221.159,68.116 221.348,68.544 221.348 C 68.976 221.348,69.394 221.535,69.484 221.770 C 69.573 222.001,69.895 222.191,70.199 222.191 C 70.504 222.191,70.831 222.317,70.927 222.472 C 71.022 222.626,71.418 222.753,71.806 222.753 C 72.194 222.753,72.702 222.942,72.933 223.174 C 73.165 223.406,73.711 223.596,74.147 223.596 C 74.593 223.596,75.011 223.780,75.102 224.017 C 75.202 224.278,75.629 224.438,76.225 224.438 C 76.821 224.438,77.249 224.599,77.349 224.860 C 77.454 225.135,77.892 225.281,78.613 225.281 C 79.334 225.281,79.771 225.427,79.877 225.702 C 79.979 225.969,80.410 226.124,81.051 226.124 C 81.607 226.124,82.252 226.313,82.484 226.545 C 82.716 226.777,83.377 226.966,83.953 226.966 C 84.529 226.966,85.146 227.112,85.323 227.290 C 85.704 227.670,87.665 228.084,90.028 228.283 C 91.056 228.369,91.801 228.578,91.938 228.819 C 92.097 229.097,92.728 229.213,94.081 229.213 C 95.443 229.213,96.100 229.336,96.348 229.635 C 96.546 229.873,97.158 230.056,97.757 230.056 C 98.652 230.056,98.843 230.165,98.992 230.758 C 99.089 231.145,99.292 231.461,99.444 231.461 C 99.595 231.461,99.719 231.650,99.719 231.882 C 99.719 232.114,99.909 232.303,100.140 232.303 C 100.372 232.303,100.562 232.493,100.562 232.725 C 100.562 232.956,100.688 233.146,100.843 233.146 C 100.997 233.146,101.124 233.336,101.124 233.567 C 101.124 233.799,101.313 233.989,101.545 233.989 C 101.777 233.989,101.966 234.123,101.966 234.286 C 101.966 234.862,104.567 237.921,105.056 237.921 C 105.211 237.921,105.337 238.111,105.337 238.343 C 105.337 238.574,105.527 238.764,105.758 238.764 C 105.990 238.764,106.180 238.906,106.180 239.079 C 106.180 239.375,113.645 246.910,113.939 246.910 C 114.014 246.910,114.479 247.289,114.973 247.752 C 115.467 248.214,115.975 248.593,116.103 248.594 C 116.231 248.595,116.808 249.101,117.384 249.719 C 117.960 250.337,118.582 250.843,118.766 250.843 C 118.950 250.843,119.101 250.967,119.101 251.118 C 119.101 251.270,119.417 251.473,119.803 251.570 C 120.190 251.667,120.506 251.922,120.506 252.137 C 120.506 252.352,120.695 252.528,120.927 252.528 C 121.159 252.528,121.348 252.644,121.348 252.786 C 121.348 252.928,121.822 253.333,122.402 253.687 C 122.981 254.041,123.497 254.430,123.549 254.553 C 123.600 254.675,123.808 254.775,124.010 254.775 C 124.213 254.775,124.451 254.965,124.540 255.197 C 124.629 255.428,124.895 255.618,125.132 255.618 C 125.368 255.618,125.562 255.742,125.562 255.894 C 125.562 256.045,125.878 256.248,126.264 256.345 C 126.650 256.442,126.966 256.697,126.966 256.912 C 126.966 257.127,127.206 257.303,127.498 257.303 C 127.790 257.303,128.103 257.493,128.191 257.725 C 128.280 257.956,128.547 258.146,128.783 258.146 C 129.020 258.146,129.213 258.272,129.213 258.427 C 129.213 258.581,129.381 258.708,129.585 258.708 C 129.789 258.708,130.453 259.084,131.060 259.543 C 131.666 260.002,132.388 260.381,132.663 260.385 C 132.939 260.390,133.236 260.583,133.325 260.815 C 133.414 261.046,133.720 261.236,134.005 261.236 C 134.290 261.236,134.624 261.395,134.747 261.590 C 134.871 261.785,135.478 262.195,136.096 262.503 C 136.713 262.810,137.320 263.220,137.444 263.413 C 137.567 263.606,137.841 263.764,138.053 263.764 C 138.511 263.764,140.269 264.657,140.403 264.958 C 140.454 265.074,140.865 265.169,141.316 265.169 C 141.857 265.169,142.135 265.312,142.135 265.590 C 142.135 265.847,142.397 266.011,142.807 266.011 C 143.177 266.011,143.552 266.201,143.641 266.433 C 143.730 266.664,144.109 266.854,144.484 266.854 C 144.858 266.854,145.237 267.044,145.326 267.275 C 145.415 267.507,145.794 267.697,146.169 267.697 C 146.544 267.697,146.923 267.886,147.012 268.118 C 147.101 268.350,147.439 268.539,147.764 268.539 C 148.089 268.539,148.544 268.729,148.776 268.961 C 149.008 269.192,149.489 269.382,149.845 269.382 C 150.202 269.382,150.650 269.572,150.843 269.803 C 151.035 270.035,151.493 270.225,151.860 270.225 C 152.228 270.225,152.528 270.351,152.528 270.506 C 152.528 270.660,152.894 270.787,153.341 270.787 C 153.804 270.787,154.223 270.968,154.315 271.208 C 154.415 271.469,154.843 271.629,155.439 271.629 C 156.035 271.629,156.462 271.790,156.562 272.051 C 156.651 272.282,157.012 272.476,157.365 272.481 C 157.717 272.486,158.251 272.675,158.551 272.902 C 158.851 273.129,159.397 273.315,159.765 273.315 C 160.133 273.315,160.623 273.504,160.855 273.736 C 161.086 273.968,161.569 274.157,161.926 274.157 C 162.284 274.157,162.938 274.346,163.381 274.577 C 163.823 274.808,164.462 274.997,164.801 274.998 C 165.139 274.999,165.494 275.126,165.590 275.281 C 165.685 275.435,166.388 275.562,167.151 275.562 C 168.198 275.562,168.539 275.665,168.539 275.983 C 168.539 276.294,168.864 276.404,169.773 276.404 C 170.611 276.404,171.059 276.540,171.169 276.826 C 171.281 277.117,171.745 277.250,172.674 277.256 C 173.412 277.261,174.262 277.451,174.562 277.677 C 174.862 277.904,175.598 278.090,176.197 278.090 C 176.797 278.090,177.477 278.279,177.709 278.511 C 177.987 278.790,178.687 278.933,179.772 278.933 C 180.792 278.933,181.456 279.059,181.525 279.267 C 181.592 279.468,182.415 279.645,183.585 279.709 C 184.657 279.769,185.976 280.018,186.517 280.264 C 187.338 280.637,188.821 280.715,195.506 280.735 L 203.511 280.758 203.599 279.846 C 203.648 279.343,203.796 278.933,203.928 278.933 C 204.060 278.933,204.258 278.522,204.368 278.020 C 204.477 277.518,204.740 276.857,204.952 276.553 C 205.164 276.248,205.337 275.711,205.337 275.359 C 205.337 275.007,205.463 274.719,205.618 274.719 C 205.772 274.719,205.899 274.213,205.899 273.596 C 205.899 272.784,206.016 272.472,206.320 272.472 C 206.597 272.472,206.742 272.195,206.742 271.664 C 206.742 271.219,206.931 270.698,207.163 270.506 C 207.395 270.313,207.584 269.808,207.584 269.382 C 207.584 268.956,207.774 268.451,208.006 268.258 C 208.237 268.066,208.427 267.482,208.427 266.960 C 208.427 266.304,208.557 266.011,208.848 266.011 C 209.129 266.011,209.270 265.730,209.270 265.169 C 209.270 264.705,209.395 264.326,209.547 264.326 C 209.700 264.326,209.906 263.820,210.004 263.202 C 210.103 262.584,210.294 262.079,210.429 262.079 C 210.564 262.079,210.674 261.650,210.674 261.126 C 210.674 260.537,210.836 260.111,211.096 260.011 C 211.360 259.909,211.517 259.480,211.517 258.857 C 211.517 258.163,211.643 257.865,211.938 257.865 C 212.215 257.865,212.360 257.588,212.360 257.057 C 212.360 256.612,212.549 256.091,212.781 255.899 C 213.013 255.707,213.202 255.240,213.202 254.861 C 213.202 254.483,213.392 253.984,213.624 253.752 C 213.855 253.520,214.045 252.976,214.045 252.542 C 214.045 252.109,214.235 251.597,214.466 251.404 C 214.698 251.212,214.892 250.786,214.897 250.457 C 214.901 250.128,215.091 249.614,215.318 249.314 C 215.545 249.014,215.730 248.485,215.730 248.137 C 215.730 247.789,215.857 247.427,216.011 247.331 C 216.166 247.236,216.292 246.723,216.292 246.191 C 216.292 245.519,216.421 245.225,216.713 245.225 C 216.976 245.225,217.135 244.959,217.135 244.519 C 217.135 244.130,217.287 243.569,217.472 243.272 C 217.739 242.845,217.729 242.581,217.425 242.012 L 217.040 241.292 207.420 241.292 C 200.328 241.292,197.771 241.206,197.690 240.964 C 197.622 240.758,196.643 240.592,195.068 240.520 C 193.687 240.457,192.158 240.226,191.671 240.006 C 191.184 239.786,190.149 239.607,189.370 239.607 C 188.592 239.607,187.876 239.480,187.781 239.326 C 187.685 239.171,187.037 239.045,186.340 239.045 C 185.588 239.045,184.901 238.874,184.651 238.624 C 184.418 238.391,183.731 238.202,183.117 238.202 C 182.388 238.202,181.949 238.057,181.843 237.781 C 181.737 237.504,181.299 237.360,180.568 237.360 C 179.953 237.360,179.266 237.171,179.033 236.938 C 178.801 236.706,178.296 236.517,177.909 236.517 C 177.523 236.517,177.017 236.327,176.786 236.096 C 176.554 235.864,175.994 235.674,175.542 235.674 C 175.089 235.674,174.719 235.553,174.719 235.406 C 174.719 235.258,174.275 235.055,173.733 234.953 C 173.190 234.851,172.677 234.656,172.593 234.519 C 172.508 234.382,172.067 234.270,171.613 234.270 C 171.066 234.270,170.787 234.127,170.787 233.848 C 170.787 233.571,170.509 233.427,169.974 233.427 C 169.511 233.427,169.092 233.246,169.000 233.006 C 168.911 232.774,168.531 232.584,168.157 232.584 C 167.782 232.584,167.403 232.395,167.314 232.163 C 167.225 231.931,166.832 231.742,166.441 231.742 C 166.050 231.742,165.730 231.624,165.730 231.480 C 165.730 231.336,165.452 231.129,165.111 231.021 C 164.771 230.913,164.320 230.652,164.108 230.440 C 163.897 230.229,163.480 230.056,163.182 230.056 C 162.884 230.056,162.640 229.932,162.640 229.781 C 162.640 229.629,162.324 229.426,161.938 229.329 C 161.552 229.232,161.236 229.040,161.236 228.902 C 161.236 228.764,160.983 228.652,160.674 228.652 C 160.365 228.652,160.112 228.528,160.112 228.376 C 160.112 228.225,159.805 228.024,159.430 227.929 C 159.055 227.835,158.680 227.580,158.597 227.362 C 158.513 227.144,158.259 226.966,158.032 226.966 C 157.805 226.966,157.204 226.587,156.696 226.124 C 156.189 225.660,155.549 225.281,155.274 225.281 C 155.000 225.281,154.775 225.091,154.775 224.860 C 154.775 224.555,155.088 224.438,155.908 224.438 C 156.655 224.438,157.095 224.295,157.202 224.017 C 157.302 223.756,157.729 223.596,158.325 223.596 C 158.921 223.596,159.349 223.435,159.449 223.174 C 159.538 222.942,159.915 222.753,160.287 222.753 C 160.658 222.753,161.182 222.645,161.450 222.513 C 162.645 221.927,163.955 221.373,164.537 221.208 C 164.884 221.110,165.169 220.912,165.169 220.768 C 165.169 220.624,165.489 220.506,165.880 220.506 C 166.271 220.506,166.663 220.316,166.752 220.084 C 166.841 219.853,167.203 219.663,167.556 219.663 C 167.909 219.663,168.271 219.473,168.360 219.242 C 168.449 219.010,168.842 218.820,169.233 218.820 C 169.678 218.820,169.944 218.662,169.944 218.399 C 169.944 218.118,170.225 217.978,170.787 217.978 C 171.250 217.978,171.629 217.851,171.629 217.697 C 171.629 217.542,171.810 217.416,172.030 217.416 C 172.251 217.416,172.601 217.258,172.807 217.065 C 173.014 216.871,173.686 216.462,174.302 216.154 C 174.918 215.847,175.522 215.436,175.646 215.242 C 175.770 215.047,176.121 214.888,176.427 214.888 C 176.733 214.888,177.057 214.698,177.146 214.466 C 177.235 214.235,177.551 214.045,177.848 214.045 C 178.145 214.045,178.461 213.855,178.550 213.624 C 178.639 213.392,178.872 213.202,179.069 213.202 C 179.265 213.202,179.583 213.013,179.775 212.781 C 179.968 212.549,180.316 212.360,180.550 212.360 C 180.784 212.360,181.268 212.044,181.626 211.657 C 181.984 211.271,182.476 210.955,182.720 210.955 C 182.964 210.955,183.236 210.765,183.325 210.534 C 183.414 210.302,183.663 210.112,183.878 210.112 C 184.094 210.112,184.270 209.923,184.270 209.691 C 184.270 209.459,184.513 209.270,184.811 209.270 C 185.109 209.270,185.543 209.080,185.774 208.848 C 186.006 208.617,186.331 208.427,186.497 208.427 C 186.662 208.427,186.798 208.237,186.798 208.006 C 186.798 207.774,186.991 207.584,187.228 207.584 C 187.465 207.584,187.731 207.395,187.820 207.163 C 187.909 206.931,188.127 206.742,188.305 206.742 C 188.484 206.742,188.970 206.426,189.387 206.039 C 189.803 205.653,190.276 205.337,190.437 205.337 C 190.598 205.337,190.730 205.147,190.730 204.916 C 190.730 204.684,190.920 204.494,191.152 204.494 C 191.383 204.494,191.573 204.305,191.573 204.073 C 191.573 203.837,191.824 203.652,192.144 203.652 C 192.457 203.652,192.787 203.462,192.876 203.230 C 192.965 202.999,193.214 202.809,193.429 202.809 C 193.644 202.809,193.820 202.619,193.820 202.388 C 193.820 202.156,193.960 201.966,194.132 201.966 C 194.303 201.966,195.127 201.271,195.963 200.421 C 196.800 199.572,197.608 198.876,197.759 198.876 C 197.910 198.876,198.034 198.687,198.034 198.455 C 198.034 198.223,198.223 198.034,198.455 198.034 C 198.687 198.034,198.876 197.911,198.876 197.760 C 198.876 197.610,199.449 196.915,200.148 196.215 C 200.847 195.516,201.542 194.944,201.693 194.944 C 201.843 194.944,201.966 194.754,201.966 194.522 C 201.966 194.291,202.156 194.101,202.388 194.101 C 202.619 194.101,202.809 193.975,202.809 193.820 C 202.809 193.666,203.315 193.034,203.933 192.416 C 204.551 191.798,205.056 191.179,205.056 191.041 C 205.056 190.903,205.246 190.718,205.478 190.629 C 205.709 190.540,205.899 190.287,205.899 190.067 C 205.899 189.847,206.088 189.594,206.320 189.505 C 206.552 189.416,206.742 189.150,206.742 188.913 C 206.742 188.677,206.931 188.483,207.163 188.483 C 207.395 188.483,207.584 188.351,207.584 188.189 C 207.584 188.027,207.871 187.616,208.222 187.276 C 208.573 186.936,209.174 186.184,209.557 185.606 C 209.939 185.028,210.348 184.554,210.463 184.552 C 210.579 184.551,210.674 184.367,210.674 184.143 C 210.674 183.919,210.832 183.635,211.025 183.511 C 211.436 183.248,212.025 182.371,212.260 181.671 C 212.351 181.401,212.568 181.178,212.743 181.177 C 212.919 181.175,213.303 180.669,213.599 180.053 C 213.894 179.437,214.248 178.933,214.386 178.933 C 214.523 178.933,214.768 178.553,214.930 178.090 C 215.091 177.626,215.338 177.247,215.477 177.247 C 215.616 177.247,215.730 177.058,215.730 176.826 C 215.730 176.594,215.857 176.404,216.011 176.404 C 216.166 176.404,216.292 176.088,216.292 175.702 C 216.292 175.265,216.451 175.000,216.713 175.000 C 216.945 175.000,217.135 174.761,217.135 174.468 C 217.135 174.176,217.324 173.864,217.556 173.775 C 217.788 173.686,217.978 173.370,217.978 173.073 C 217.978 172.775,218.167 172.459,218.399 172.370 C 218.631 172.281,218.820 171.902,218.820 171.528 C 218.820 171.153,219.010 170.774,219.242 170.685 C 219.473 170.596,219.663 170.266,219.663 169.953 C 219.663 169.639,219.765 169.382,219.890 169.382 C 220.129 169.382,221.067 167.433,221.067 166.934 C 221.067 166.773,221.257 166.484,221.489 166.292 C 221.721 166.100,221.910 165.579,221.910 165.134 C 221.910 164.603,222.055 164.326,222.331 164.326 C 222.589 164.326,222.753 164.064,222.753 163.654 C 222.753 163.284,222.942 162.909,223.174 162.820 C 223.406 162.731,223.596 162.392,223.596 162.067 C 223.596 161.743,223.785 161.287,224.017 161.055 C 224.249 160.824,224.438 160.343,224.438 159.986 C 224.438 159.630,224.628 159.181,224.860 158.989 C 225.091 158.796,225.285 158.370,225.290 158.041 C 225.295 157.713,225.484 157.198,225.711 156.899 C 225.938 156.599,226.124 156.069,226.124 155.721 C 226.124 155.374,226.250 155.011,226.404 154.916 C 226.559 154.820,226.685 154.386,226.685 153.950 C 226.685 153.515,226.875 153.001,227.107 152.809 C 227.338 152.617,227.528 152.048,227.528 151.545 C 227.528 151.042,227.718 150.473,227.949 150.281 C 228.181 150.089,228.371 149.520,228.371 149.017 C 228.371 148.514,228.560 147.945,228.792 147.753 C 229.046 147.542,229.213 146.928,229.213 146.208 C 229.213 145.488,229.381 144.873,229.635 144.663 C 229.895 144.447,230.060 143.817,230.065 143.013 C 230.070 142.298,230.260 141.468,230.486 141.168 C 230.716 140.864,230.899 140.025,230.899 139.272 C 230.899 138.529,231.025 137.921,231.180 137.921 C 231.342 137.921,231.461 137.043,231.461 135.849 C 231.461 134.350,231.577 133.680,231.882 133.427 C 232.209 133.156,232.303 132.399,232.303 130.056 C 232.303 127.713,232.398 126.957,232.725 126.685 C 233.360 126.158,233.360 103.997,232.725 103.753 C 232.386 103.623,232.303 102.995,232.303 100.552 C 232.303 98.224,232.205 97.413,231.882 97.091 C 231.588 96.796,231.461 96.076,231.461 94.700 C 231.461 93.616,231.334 92.652,231.180 92.556 C 231.025 92.461,230.898 91.853,230.897 91.205 C 230.896 90.558,230.707 89.666,230.476 89.224 C 230.245 88.781,230.056 87.952,230.056 87.381 C 230.056 86.810,229.871 86.098,229.644 85.798 C 229.417 85.498,229.227 84.794,229.222 84.234 C 229.218 83.673,229.024 83.057,228.792 82.865 C 228.560 82.673,228.371 82.104,228.371 81.601 C 228.371 81.098,228.181 80.529,227.949 80.337 C 227.706 80.135,227.528 79.523,227.528 78.889 C 227.528 78.172,227.382 77.735,227.107 77.630 C 226.847 77.530,226.685 77.103,226.685 76.515 C 226.685 75.991,226.575 75.562,226.440 75.562 C 226.306 75.562,226.115 75.056,226.016 74.438 C 225.917 73.820,225.711 73.315,225.558 73.315 C 225.406 73.315,225.281 73.023,225.281 72.666 C 225.281 72.309,225.095 71.772,224.868 71.472 C 224.642 71.172,224.452 70.639,224.447 70.286 C 224.442 69.934,224.249 69.573,224.017 69.484 C 223.777 69.391,223.596 68.972,223.596 68.509 C 223.596 67.974,223.452 67.697,223.174 67.697 C 222.893 67.697,222.753 67.416,222.753 66.854 C 222.753 66.292,222.612 66.011,222.331 66.011 C 222.073 66.011,221.910 65.748,221.910 65.329 C 221.910 64.954,221.721 64.457,221.489 64.226 C 221.257 63.994,221.067 63.625,221.067 63.406 C 221.067 62.827,220.228 61.236,219.923 61.236 C 219.780 61.236,219.663 60.916,219.663 60.525 C 219.663 60.134,219.473 59.741,219.242 59.652 C 219.010 59.563,218.820 59.247,218.820 58.950 C 218.820 58.653,218.631 58.337,218.399 58.248 C 218.167 58.159,217.978 57.783,217.978 57.414 C 217.978 57.044,217.848 56.742,217.690 56.742 C 217.531 56.742,217.279 56.457,217.129 56.110 C 216.842 55.448,216.254 54.453,216.007 54.213 C 215.927 54.136,215.611 53.537,215.305 52.882 C 214.998 52.228,214.603 51.690,214.427 51.689 C 214.250 51.687,214.027 51.369,213.930 50.983 C 213.833 50.597,213.629 50.281,213.478 50.281 C 213.326 50.281,213.202 50.098,213.202 49.874 C 213.202 49.649,213.044 49.365,212.851 49.241 C 212.440 48.979,211.851 48.101,211.616 47.402 C 211.526 47.131,211.276 46.910,211.063 46.910 C 210.849 46.910,210.674 46.721,210.674 46.489 C 210.674 46.257,210.548 46.067,210.393 46.067 C 210.239 46.067,210.112 45.882,210.112 45.656 C 210.112 45.429,209.733 44.856,209.270 44.382 C 208.806 43.908,208.427 43.398,208.427 43.249 C 208.427 43.100,208.237 42.978,208.006 42.978 C 207.774 42.978,207.584 42.816,207.584 42.619 C 207.584 42.421,207.205 41.845,206.742 41.337 C 206.278 40.830,205.899 40.340,205.899 40.248 C 205.899 40.157,205.393 39.601,204.775 39.013 C 204.157 38.425,203.652 37.812,203.652 37.652 C 203.652 37.491,203.462 37.360,203.230 37.360 C 202.999 37.360,202.809 37.170,202.809 36.938 C 202.809 36.706,202.619 36.517,202.388 36.517 C 202.156 36.517,201.966 36.327,201.966 36.096 C 201.966 35.864,201.777 35.674,201.545 35.674 C 201.313 35.674,201.124 35.485,201.124 35.253 C 201.124 35.021,200.934 34.831,200.702 34.831 C 200.471 34.831,200.281 34.704,200.281 34.548 C 200.281 34.108,198.828 32.584,198.409 32.584 C 198.202 32.584,198.034 32.395,198.034 32.163 C 198.034 31.931,197.844 31.742,197.612 31.742 C 197.381 31.742,197.191 31.552,197.191 31.320 C 197.191 31.088,197.001 30.899,196.770 30.899 C 196.538 30.899,196.348 30.709,196.348 30.478 C 196.348 30.246,196.159 30.056,195.927 30.056 C 195.695 30.056,195.506 29.867,195.506 29.635 C 195.506 29.403,195.316 29.213,195.084 29.213 C 194.853 29.213,194.663 29.024,194.663 28.792 C 194.663 28.560,194.519 28.371,194.344 28.371 C 194.169 28.371,193.732 28.055,193.374 27.669 C 193.016 27.282,192.662 26.966,192.587 26.966 C 192.512 26.966,192.035 26.587,191.528 26.124 C 191.020 25.660,190.444 25.281,190.246 25.281 C 190.049 25.281,189.888 25.091,189.888 24.860 C 189.888 24.628,189.769 24.438,189.624 24.438 C 189.479 24.438,188.945 24.059,188.438 23.596 C 187.930 23.132,187.354 22.753,187.156 22.753 C 186.959 22.753,186.798 22.626,186.798 22.472 C 186.798 22.317,186.608 22.191,186.376 22.191 C 186.145 22.191,185.955 22.016,185.955 21.802 C 185.955 21.589,185.734 21.333,185.463 21.234 C 184.508 20.883,183.427 20.191,183.427 19.928 C 183.427 19.782,183.251 19.663,183.036 19.663 C 182.820 19.663,182.572 19.473,182.483 19.242 C 182.394 19.010,182.134 18.820,181.905 18.820 C 181.677 18.820,181.145 18.501,180.725 18.111 C 180.304 17.721,179.665 17.328,179.306 17.238 C 178.946 17.148,178.652 16.976,178.652 16.856 C 178.652 16.737,178.430 16.564,178.160 16.474 C 177.461 16.239,176.583 15.650,176.320 15.239 C 176.197 15.046,175.799 14.888,175.437 14.888 C 175.075 14.888,174.706 14.698,174.618 14.466 C 174.529 14.235,174.213 14.045,173.915 14.045 C 173.618 14.045,173.302 13.855,173.213 13.624 C 173.124 13.392,172.802 13.202,172.497 13.202 C 172.193 13.202,171.873 13.089,171.788 12.950 C 171.565 12.590,169.442 11.517,168.952 11.517 C 168.725 11.517,168.539 11.390,168.539 11.236 C 168.539 11.081,168.302 10.955,168.012 10.955 C 167.722 10.955,167.327 10.765,167.135 10.534 C 166.943 10.302,166.421 10.112,165.977 10.112 C 165.446 10.112,165.169 9.968,165.169 9.691 C 165.169 9.410,164.888 9.270,164.326 9.270 C 163.764 9.270,163.483 9.129,163.483 8.848 C 163.483 8.583,163.216 8.427,162.761 8.427 C 162.364 8.427,161.849 8.237,161.617 8.006 C 161.385 7.774,160.880 7.584,160.494 7.584 C 160.107 7.584,159.602 7.395,159.370 7.163 C 159.138 6.931,158.712 6.742,158.423 6.742 C 158.135 6.742,157.820 6.615,157.725 6.461 C 157.629 6.306,157.130 6.180,156.615 6.180 C 156.041 6.180,155.615 6.016,155.516 5.758 C 155.411 5.483,154.973 5.337,154.252 5.337 C 153.532 5.337,153.094 5.191,152.988 4.916 C 152.886 4.649,152.455 4.494,151.815 4.494 C 151.258 4.494,150.613 4.305,150.381 4.073 C 150.137 3.829,149.450 3.652,148.746 3.652 C 147.926 3.652,147.480 3.515,147.370 3.230 C 147.267 2.961,146.825 2.806,146.146 2.800 C 145.562 2.795,144.839 2.606,144.539 2.379 C 144.239 2.152,143.400 1.966,142.675 1.966 C 141.950 1.966,140.994 1.777,140.552 1.547 C 140.109 1.316,139.091 1.126,138.289 1.125 C 137.487 1.124,136.753 0.997,136.657 0.843 C 136.562 0.688,135.543 0.562,134.394 0.562 C 133.187 0.562,132.303 0.443,132.303 0.281 C 132.303 0.097,126.779 0.000,116.292 0.000 C 105.805 0.000,100.281 0.097,100.281 0.281 M263.764 0.953 C 263.764 1.541,263.603 1.968,263.343 2.068 C 263.111 2.157,262.921 2.559,262.921 2.961 C 262.921 3.363,262.732 3.881,262.500 4.113 C 262.268 4.345,262.079 4.891,262.079 5.327 C 262.079 5.772,261.894 6.190,261.657 6.281 C 261.396 6.382,261.236 6.809,261.236 7.405 C 261.236 8.001,261.076 8.428,260.815 8.529 C 260.583 8.617,260.389 8.979,260.384 9.331 C 260.379 9.684,260.190 10.217,259.963 10.517 C 259.736 10.817,259.551 11.347,259.551 11.694 C 259.551 12.042,259.424 12.405,259.270 12.500 C 259.115 12.595,258.989 13.032,258.989 13.470 C 258.989 13.918,258.805 14.336,258.567 14.427 C 258.303 14.529,258.146 14.958,258.146 15.581 C 258.146 16.276,258.020 16.573,257.725 16.573 C 257.430 16.573,257.303 16.871,257.303 17.565 C 257.303 18.188,257.146 18.617,256.882 18.719 C 256.650 18.808,256.461 19.192,256.461 19.573 C 256.461 19.953,256.271 20.454,256.039 20.686 C 255.808 20.918,255.618 21.527,255.618 22.041 C 255.618 22.611,255.454 23.036,255.197 23.135 C 254.965 23.224,254.771 23.585,254.766 23.938 C 254.761 24.290,254.572 24.824,254.345 25.124 C 254.118 25.424,253.933 25.961,253.933 26.318 C 253.933 26.674,253.806 26.966,253.652 26.966 C 253.497 26.966,253.371 27.472,253.371 28.090 C 253.371 28.901,253.254 29.213,252.949 29.213 C 252.672 29.213,252.528 29.491,252.528 30.026 C 252.528 30.489,252.347 30.908,252.107 31.000 C 251.846 31.101,251.685 31.528,251.685 32.124 C 251.685 32.720,251.525 33.147,251.264 33.248 C 251.032 33.337,250.843 33.738,250.843 34.140 C 250.843 34.543,250.653 35.061,250.421 35.293 C 250.190 35.525,250.000 36.084,250.000 36.537 C 250.000 36.989,249.887 37.360,249.750 37.360 C 249.612 37.360,249.418 37.707,249.319 38.132 C 249.158 38.818,248.737 39.842,247.992 41.359 C 247.861 41.627,247.753 42.231,247.753 42.702 C 247.753 43.203,247.578 43.624,247.331 43.719 C 247.100 43.808,246.910 44.192,246.910 44.573 C 246.910 44.953,246.721 45.454,246.489 45.686 C 246.257 45.918,246.067 46.464,246.067 46.900 C 246.067 47.346,245.883 47.764,245.646 47.854 C 245.405 47.947,245.225 48.366,245.225 48.833 C 245.225 49.283,245.035 49.808,244.803 50.000 C 244.572 50.192,244.378 50.619,244.373 50.947 C 244.368 51.276,244.179 51.790,243.952 52.090 C 243.725 52.390,243.539 52.920,243.539 53.267 C 243.539 53.615,243.413 53.978,243.258 54.073 C 243.104 54.169,242.978 54.605,242.978 55.043 C 242.978 55.491,242.794 55.909,242.556 56.000 C 242.292 56.102,242.135 56.531,242.135 57.154 C 242.135 57.849,242.008 58.146,241.713 58.146 C 241.422 58.146,241.292 58.439,241.292 59.095 C 241.292 59.617,241.103 60.201,240.871 60.393 C 240.639 60.586,240.445 61.012,240.441 61.341 C 240.436 61.669,240.246 62.184,240.019 62.483 C 239.792 62.783,239.607 63.370,239.607 63.788 C 239.607 64.205,239.417 64.619,239.185 64.708 C 238.954 64.797,238.760 65.158,238.755 65.511 C 238.750 65.863,238.561 66.397,238.334 66.697 C 238.107 66.997,237.921 67.534,237.921 67.891 C 237.921 68.247,237.795 68.539,237.640 68.539 C 237.486 68.539,237.360 69.045,237.360 69.663 C 237.360 70.474,237.243 70.787,236.938 70.787 C 236.656 70.787,236.517 71.068,236.517 71.638 C 236.517 72.136,236.342 72.557,236.096 72.651 C 235.782 72.771,235.674 73.269,235.674 74.589 C 235.674 75.793,235.810 76.500,236.096 76.786 C 236.327 77.017,236.517 77.580,236.517 78.035 C 236.517 78.491,236.706 79.021,236.938 79.213 C 237.195 79.427,237.360 80.042,237.360 80.793 C 237.360 81.469,237.470 82.022,237.605 82.022 C 237.740 82.022,237.913 82.681,237.990 83.485 C 238.068 84.290,238.273 84.996,238.448 85.054 C 238.624 85.112,238.764 85.757,238.764 86.506 C 238.764 87.360,238.918 87.980,239.185 88.202 C 239.471 88.440,239.607 89.076,239.607 90.183 C 239.607 91.258,239.750 91.957,240.028 92.235 C 240.329 92.536,240.449 93.268,240.449 94.792 C 240.449 96.431,240.547 96.965,240.871 97.089 C 241.213 97.221,241.292 97.882,241.292 100.601 C 241.292 103.319,241.372 103.981,241.713 104.112 C 242.078 104.252,242.135 105.758,242.135 115.305 C 242.135 124.767,242.075 126.385,241.713 126.685 C 241.386 126.957,241.292 127.719,241.292 130.111 C 241.292 132.470,241.194 133.284,240.871 133.608 C 240.577 133.902,240.447 134.637,240.441 136.045 C 240.435 137.371,240.290 138.248,240.019 138.607 C 239.775 138.930,239.607 139.770,239.607 140.664 C 239.607 141.633,239.456 142.326,239.185 142.596 C 238.954 142.828,238.764 143.500,238.764 144.089 C 238.764 144.678,238.575 145.523,238.344 145.965 C 238.114 146.408,237.924 147.173,237.923 147.666 C 237.922 148.159,237.795 148.640,237.640 148.736 C 237.486 148.831,237.360 149.534,237.360 150.297 C 237.360 151.344,237.256 151.685,236.938 151.685 C 236.626 151.685,236.517 152.013,236.517 152.949 C 236.517 153.886,236.408 154.213,236.096 154.213 C 235.793 154.213,235.674 154.522,235.674 155.307 C 235.674 156.020,235.527 156.457,235.253 156.562 C 235.010 156.656,234.831 157.075,234.831 157.555 C 234.831 158.013,234.642 158.576,234.410 158.808 C 234.178 159.040,233.989 159.555,233.989 159.952 C 233.989 160.349,233.868 160.674,233.721 160.674 C 233.573 160.674,233.369 161.118,233.267 161.660 C 233.166 162.203,232.970 162.716,232.833 162.801 C 232.696 162.885,232.584 163.326,232.584 163.781 C 232.584 164.328,232.442 164.607,232.163 164.607 C 231.898 164.607,231.742 164.874,231.742 165.329 C 231.742 165.726,231.552 166.241,231.320 166.473 C 231.088 166.704,230.899 167.122,230.899 167.401 C 230.899 167.680,230.709 168.066,230.478 168.258 C 230.246 168.451,230.056 168.972,230.056 169.416 C 230.056 169.948,229.912 170.225,229.635 170.225 C 229.378 170.225,229.213 170.487,229.213 170.897 C 229.213 171.267,229.024 171.642,228.792 171.731 C 228.560 171.820,228.371 172.142,228.371 172.447 C 228.371 172.751,228.252 173.074,228.108 173.163 C 227.773 173.370,226.966 174.975,226.966 175.434 C 226.966 175.626,226.777 175.855,226.545 175.944 C 226.313 176.033,226.124 176.367,226.124 176.685 C 226.124 177.004,225.934 177.338,225.702 177.427 C 225.471 177.515,225.281 177.891,225.281 178.260 C 225.281 178.630,225.123 178.934,224.930 178.936 C 224.737 178.938,224.327 179.475,224.019 180.130 C 223.711 180.784,223.300 181.487,223.106 181.691 C 222.912 181.896,222.753 182.230,222.753 182.434 C 222.753 182.638,222.563 182.878,222.331 182.967 C 222.100 183.056,221.910 183.322,221.910 183.559 C 221.910 183.795,221.784 183.989,221.629 183.989 C 221.475 183.989,221.348 184.305,221.348 184.691 C 221.348 185.128,221.189 185.393,220.927 185.393 C 220.695 185.393,220.506 185.569,220.506 185.785 C 220.506 186.000,220.316 186.249,220.084 186.338 C 219.853 186.426,219.663 186.756,219.663 187.070 C 219.663 187.390,219.478 187.640,219.242 187.640 C 219.010 187.640,218.820 187.830,218.820 188.062 C 218.820 188.294,218.701 188.483,218.555 188.483 C 218.292 188.483,217.600 189.564,217.250 190.520 C 217.150 190.790,216.958 191.011,216.821 191.011 C 216.685 191.011,216.573 191.201,216.573 191.433 C 216.573 191.664,216.383 191.854,216.152 191.854 C 215.920 191.854,215.730 192.044,215.730 192.275 C 215.730 192.507,215.601 192.697,215.442 192.697 C 215.284 192.697,215.034 193.013,214.888 193.399 C 214.741 193.785,214.491 194.101,214.333 194.101 C 214.174 194.101,214.045 194.291,214.045 194.522 C 214.045 194.754,213.855 194.944,213.624 194.944 C 213.392 194.944,213.202 195.076,213.202 195.238 C 213.202 195.400,212.918 195.811,212.570 196.151 C 211.615 197.086,210.112 199.085,210.112 199.422 C 210.112 199.585,209.923 199.719,209.691 199.719 C 209.459 199.719,209.270 199.909,209.270 200.140 C 209.270 200.372,209.080 200.562,208.848 200.562 C 208.617 200.562,208.427 200.751,208.427 200.983 C 208.427 201.215,208.237 201.404,208.006 201.404 C 207.774 201.404,207.584 201.521,207.584 201.664 C 207.584 202.001,205.934 203.652,205.596 203.652 C 205.454 203.652,205.337 203.841,205.337 204.073 C 205.337 204.305,205.147 204.494,204.916 204.494 C 204.684 204.494,204.494 204.684,204.494 204.916 C 204.494 205.147,204.305 205.337,204.073 205.337 C 203.841 205.337,203.652 205.527,203.652 205.758 C 203.652 205.990,203.462 206.180,203.230 206.180 C 202.999 206.180,202.809 206.369,202.809 206.601 C 202.809 206.833,202.673 207.022,202.506 207.022 C 202.113 207.022,200.562 208.574,200.562 208.967 C 200.562 209.134,200.397 209.270,200.195 209.270 C 199.750 209.270,198.330 210.394,196.735 212.008 C 196.086 212.665,195.482 213.202,195.393 213.202 C 195.139 213.202,192.568 215.202,192.463 215.482 C 192.411 215.618,192.190 215.730,191.971 215.730 C 191.752 215.730,191.573 215.920,191.573 216.152 C 191.573 216.388,191.322 216.573,191.002 216.573 C 190.689 216.573,190.359 216.763,190.270 216.994 C 190.181 217.226,189.932 217.416,189.717 217.416 C 189.502 217.416,189.326 217.580,189.326 217.781 C 189.326 217.981,188.900 218.299,188.380 218.487 C 187.545 218.790,187.117 219.072,185.756 220.220 C 185.570 220.377,185.222 220.506,184.984 220.506 C 184.746 220.506,184.551 220.695,184.551 220.927 C 184.551 221.159,184.313 221.348,184.023 221.348 C 183.733 221.348,183.338 221.538,183.146 221.770 C 182.954 222.001,182.622 222.191,182.409 222.191 C 182.197 222.191,182.022 222.381,182.022 222.612 C 182.022 222.875,181.757 223.034,181.320 223.034 C 180.934 223.034,180.618 223.160,180.618 223.315 C 180.618 223.469,180.453 223.596,180.252 223.596 C 179.607 223.596,178.090 225.404,178.090 226.173 C 178.090 226.571,177.900 227.055,177.669 227.247 C 177.437 227.440,177.247 227.947,177.247 228.375 C 177.247 228.821,177.060 229.225,176.809 229.322 C 176.495 229.442,176.395 229.790,176.458 230.545 L 176.545 231.601 199.228 231.673 C 219.274 231.737,221.910 231.696,221.910 231.322 C 221.910 231.089,222.100 230.899,222.331 230.899 C 222.597 230.899,222.753 230.631,222.753 230.177 C 222.753 229.779,222.942 229.265,223.174 229.033 C 223.406 228.801,223.596 228.257,223.596 227.823 C 223.596 227.390,223.785 226.878,224.017 226.685 C 224.249 226.493,224.438 225.922,224.438 225.417 C 224.438 224.860,224.604 224.435,224.860 224.337 C 225.091 224.248,225.281 223.855,225.281 223.464 C 225.281 223.073,225.406 222.753,225.558 222.753 C 225.711 222.753,225.917 222.244,226.017 221.623 C 226.116 221.002,226.307 220.425,226.441 220.342 C 226.576 220.259,226.685 219.874,226.685 219.486 C 226.685 219.098,226.875 218.590,227.107 218.359 C 227.338 218.127,227.528 217.581,227.528 217.145 C 227.528 216.699,227.713 216.281,227.949 216.191 C 228.210 216.090,228.371 215.663,228.371 215.067 C 228.371 214.471,228.531 214.044,228.792 213.943 C 229.033 213.851,229.213 213.432,229.213 212.965 C 229.213 212.515,229.403 211.990,229.635 211.798 C 229.867 211.605,230.056 211.225,230.056 210.953 C 230.056 210.680,230.245 210.095,230.476 209.653 C 230.707 209.210,230.896 208.564,230.897 208.216 C 230.898 207.869,231.025 207.584,231.180 207.584 C 231.334 207.584,231.461 207.221,231.461 206.776 C 231.461 206.331,231.650 205.810,231.882 205.618 C 232.114 205.426,232.303 204.918,232.303 204.490 C 232.303 204.057,232.490 203.640,232.725 203.550 C 232.966 203.458,233.146 203.039,233.146 202.571 C 233.146 202.122,233.336 201.597,233.567 201.404 C 233.799 201.212,233.989 200.745,233.989 200.367 C 233.989 199.989,234.178 199.489,234.410 199.258 C 234.642 199.026,234.831 198.480,234.831 198.044 C 234.831 197.598,235.016 197.180,235.253 197.089 C 235.502 196.994,235.674 196.572,235.674 196.056 C 235.674 195.577,235.864 194.995,236.096 194.763 C 236.327 194.532,236.517 194.035,236.517 193.660 C 236.517 193.285,236.643 192.978,236.798 192.978 C 236.952 192.978,237.079 192.472,237.079 191.854 C 237.079 191.042,237.196 190.730,237.500 190.730 C 237.804 190.730,237.921 190.418,237.921 189.607 C 237.921 188.795,238.038 188.483,238.343 188.483 C 238.608 188.483,238.764 188.216,238.764 187.761 C 238.764 187.364,238.954 186.849,239.185 186.617 C 239.417 186.385,239.607 185.841,239.607 185.408 C 239.607 184.974,239.796 184.462,240.028 184.270 C 240.260 184.077,240.449 183.572,240.449 183.146 C 240.449 182.720,240.639 182.215,240.871 182.022 C 241.103 181.830,241.292 181.372,241.292 181.005 C 241.292 180.638,241.405 180.337,241.543 180.337 C 241.680 180.337,241.872 180.021,241.969 179.635 L 242.146 178.933 289.331 178.933 L 336.517 178.933 336.517 180.056 C 336.517 180.868,336.634 181.180,336.938 181.180 C 337.231 181.180,337.360 181.474,337.360 182.146 C 337.360 182.678,337.486 183.191,337.640 183.287 C 337.795 183.382,337.921 183.696,337.921 183.985 C 337.921 184.274,338.111 184.700,338.343 184.932 C 338.574 185.164,338.764 185.726,338.764 186.181 C 338.764 186.637,338.954 187.167,339.185 187.360 C 339.417 187.552,339.607 187.986,339.607 188.323 C 339.607 188.661,339.792 189.183,340.019 189.483 C 340.246 189.783,340.436 190.376,340.441 190.801 C 340.446 191.296,340.601 191.573,340.871 191.573 C 341.162 191.573,341.292 191.866,341.292 192.522 C 341.292 193.044,341.482 193.628,341.713 193.820 C 341.945 194.013,342.135 194.520,342.135 194.948 C 342.135 195.381,342.322 195.798,342.556 195.888 C 342.821 195.990,342.978 196.419,342.978 197.042 C 342.978 197.587,343.104 198.034,343.258 198.034 C 343.413 198.034,343.539 198.326,343.539 198.682 C 343.539 199.039,343.725 199.576,343.952 199.876 C 344.179 200.176,344.368 200.753,344.373 201.159 C 344.378 201.565,344.572 202.055,344.803 202.247 C 345.035 202.440,345.225 202.965,345.225 203.414 C 345.225 203.881,345.405 204.300,345.646 204.393 C 345.880 204.483,346.067 204.900,346.067 205.333 C 346.067 205.761,346.257 206.268,346.489 206.461 C 346.721 206.653,346.910 207.174,346.910 207.619 C 346.910 208.150,347.055 208.427,347.331 208.427 C 347.636 208.427,347.753 208.739,347.753 209.551 C 347.753 210.169,347.879 210.674,348.034 210.674 C 348.188 210.674,348.315 211.038,348.315 211.482 C 348.315 211.927,348.491 212.437,348.707 212.616 C 348.922 212.795,349.181 213.379,349.281 213.915 C 349.382 214.450,349.584 214.888,349.732 214.888 C 349.879 214.888,350.000 215.258,350.000 215.710 C 350.000 216.163,350.190 216.723,350.421 216.954 C 350.653 217.186,350.843 217.685,350.843 218.064 C 350.843 218.442,351.032 218.909,351.264 219.101 C 351.496 219.293,351.685 219.819,351.685 220.268 C 351.685 220.735,351.866 221.154,352.107 221.247 C 352.368 221.347,352.528 221.774,352.528 222.370 C 352.528 222.966,352.688 223.394,352.949 223.494 C 353.187 223.585,353.371 224.003,353.371 224.452 C 353.371 224.890,353.497 225.326,353.652 225.421 C 353.806 225.517,353.933 225.894,353.933 226.261 C 353.933 226.627,354.122 227.116,354.354 227.348 C 354.586 227.579,354.775 228.066,354.775 228.429 C 354.775 228.792,354.952 229.341,355.169 229.650 C 355.385 229.960,355.607 230.525,355.661 230.907 L 355.758 231.601 377.879 231.673 L 400.000 231.745 400.000 229.415 C 400.000 227.640,399.866 226.823,399.438 225.983 C 399.129 225.377,398.876 224.679,398.876 224.432 C 398.876 224.186,398.691 223.738,398.464 223.439 C 398.237 223.139,398.048 222.559,398.043 222.151 C 398.038 221.743,397.844 221.336,397.612 221.247 C 397.365 221.152,397.191 220.730,397.191 220.225 C 397.191 219.719,397.017 219.298,396.770 219.203 C 396.538 219.114,396.348 218.699,396.348 218.282 C 396.348 217.865,396.163 217.278,395.936 216.978 C 395.709 216.678,395.519 216.085,395.515 215.660 C 395.509 215.165,395.354 214.888,395.084 214.888 C 394.780 214.888,394.663 214.576,394.663 213.764 C 394.663 213.146,394.537 212.640,394.382 212.640 C 394.228 212.640,394.101 212.349,394.101 211.992 C 394.101 211.635,393.916 211.098,393.689 210.798 C 393.462 210.498,393.272 209.901,393.267 209.472 C 393.262 209.042,393.069 208.617,392.837 208.529 C 392.576 208.428,392.416 208.001,392.416 207.405 C 392.416 206.809,392.255 206.382,391.994 206.281 C 391.760 206.191,391.573 205.774,391.573 205.341 C 391.573 204.913,391.383 204.406,391.152 204.213 C 390.920 204.021,390.730 203.500,390.730 203.055 C 390.730 202.524,390.586 202.247,390.309 202.247 C 390.006 202.247,389.888 201.937,389.888 201.140 C 389.888 200.531,389.761 199.955,389.607 199.860 C 389.452 199.764,389.326 199.450,389.326 199.161 C 389.326 198.872,389.136 198.446,388.904 198.214 C 388.673 197.983,388.483 197.401,388.483 196.921 C 388.483 196.406,388.311 195.984,388.062 195.888 C 387.825 195.797,387.640 195.379,387.640 194.934 C 387.640 194.498,387.451 193.952,387.219 193.720 C 386.987 193.488,386.798 192.974,386.798 192.576 C 386.798 192.121,386.642 191.854,386.376 191.854 C 386.072 191.854,385.955 191.541,385.955 190.722 C 385.955 189.974,385.812 189.534,385.534 189.427 C 385.273 189.327,385.112 188.900,385.112 188.304 C 385.112 187.708,384.952 187.280,384.691 187.180 C 384.454 187.089,384.270 186.671,384.270 186.222 C 384.270 185.785,384.143 185.348,383.989 185.253 C 383.834 185.157,383.708 184.780,383.708 184.414 C 383.708 184.048,383.518 183.558,383.287 183.327 C 383.055 183.095,382.865 182.589,382.865 182.203 C 382.865 181.817,382.676 181.311,382.444 181.079 C 382.212 180.848,382.022 180.270,382.022 179.795 C 382.022 179.216,381.884 178.933,381.601 178.933 C 381.306 178.933,381.180 178.635,381.180 177.941 C 381.180 177.318,381.023 176.888,380.758 176.787 C 380.522 176.696,380.337 176.278,380.337 175.833 C 380.337 175.397,380.147 174.851,379.916 174.619 C 379.684 174.387,379.494 173.809,379.494 173.335 C 379.494 172.860,379.368 172.472,379.213 172.472 C 379.059 172.472,378.933 172.180,378.933 171.823 C 378.933 171.467,378.747 170.929,378.520 170.630 C 378.293 170.330,378.104 169.750,378.099 169.342 C 378.094 168.934,377.900 168.527,377.669 168.438 C 377.421 168.343,377.247 167.921,377.247 167.416 C 377.247 166.910,377.073 166.489,376.826 166.394 C 376.570 166.296,376.404 165.871,376.404 165.313 C 376.404 164.808,376.215 164.237,375.983 164.045 C 375.751 163.853,375.562 163.332,375.562 162.887 C 375.562 162.356,375.417 162.079,375.140 162.079 C 374.836 162.079,374.719 161.767,374.719 160.955 C 374.719 160.144,374.602 159.831,374.298 159.831 C 373.993 159.831,373.876 159.519,373.876 158.708 C 373.876 158.090,373.750 157.584,373.596 157.584 C 373.441 157.584,373.315 157.277,373.315 156.902 C 373.315 156.527,373.125 156.030,372.893 155.799 C 372.662 155.567,372.472 154.985,372.472 154.506 C 372.472 153.990,372.300 153.568,372.051 153.472 C 371.814 153.382,371.629 152.963,371.629 152.518 C 371.629 152.082,371.440 151.536,371.208 151.304 C 370.976 151.072,370.787 150.558,370.787 150.161 C 370.787 149.706,370.630 149.438,370.365 149.438 C 370.060 149.438,369.944 149.125,369.944 148.306 C 369.944 147.558,369.801 147.118,369.522 147.012 C 369.285 146.921,369.101 146.502,369.101 146.054 C 369.101 145.616,368.975 145.180,368.820 145.084 C 368.666 144.989,368.539 144.611,368.539 144.245 C 368.539 143.879,368.369 143.409,368.161 143.201 C 367.953 142.993,367.695 142.352,367.587 141.777 C 367.479 141.201,367.270 140.730,367.122 140.730 C 366.975 140.730,366.854 140.367,366.854 139.922 C 366.854 139.477,366.664 138.956,366.433 138.764 C 366.201 138.572,366.011 138.047,366.011 137.597 C 366.011 137.130,365.831 136.711,365.590 136.618 C 365.329 136.518,365.169 136.091,365.169 135.495 C 365.169 134.899,365.008 134.471,364.747 134.371 C 364.513 134.281,364.326 133.864,364.326 133.431 C 364.326 133.003,364.136 132.496,363.904 132.303 C 363.673 132.111,363.483 131.597,363.483 131.162 C 363.483 130.727,363.357 130.292,363.202 130.197 C 363.048 130.101,362.921 129.739,362.921 129.391 C 362.921 129.043,362.736 128.514,362.509 128.214 C 362.282 127.914,362.092 127.380,362.088 127.028 C 362.083 126.675,361.889 126.314,361.657 126.225 C 361.396 126.125,361.236 125.697,361.236 125.102 C 361.236 124.506,361.076 124.078,360.815 123.978 C 360.583 123.889,360.393 123.475,360.393 123.057 C 360.393 122.640,360.208 122.053,359.981 121.753 C 359.754 121.453,359.564 120.860,359.559 120.435 C 359.554 119.940,359.399 119.663,359.129 119.663 C 358.834 119.663,358.708 119.365,358.708 118.671 C 358.708 118.048,358.551 117.619,358.287 117.517 C 358.055 117.428,357.865 117.108,357.865 116.806 C 357.865 116.067,357.017 113.513,356.708 113.322 C 356.572 113.238,356.461 112.806,356.461 112.363 C 356.461 111.920,356.271 111.367,356.039 111.136 C 355.808 110.904,355.618 110.405,355.618 110.026 C 355.618 109.648,355.428 109.181,355.197 108.989 C 354.965 108.796,354.775 108.275,354.775 107.831 C 354.775 107.300,354.631 107.022,354.354 107.022 C 354.052 107.022,353.933 106.714,353.933 105.929 C 353.933 105.216,353.786 104.779,353.511 104.674 C 353.267 104.580,353.090 104.160,353.090 103.677 C 353.090 103.218,352.978 102.773,352.841 102.688 C 352.704 102.604,352.509 102.090,352.407 101.548 C 352.305 101.006,352.101 100.562,351.954 100.562 C 351.806 100.562,351.685 100.192,351.685 99.739 C 351.685 99.287,351.496 98.727,351.264 98.495 C 351.032 98.263,350.843 97.821,350.843 97.512 C 350.843 97.203,350.653 96.761,350.421 96.529 C 350.190 96.297,350.000 95.715,350.000 95.236 C 350.000 94.720,349.828 94.298,349.579 94.203 C 349.344 94.113,349.157 93.695,349.157 93.263 C 349.157 92.835,348.968 92.327,348.736 92.135 C 348.504 91.943,348.315 91.421,348.315 90.977 C 348.315 90.446,348.170 90.169,347.893 90.169 C 347.590 90.169,347.472 89.858,347.472 89.062 C 347.472 88.453,347.346 87.876,347.191 87.781 C 347.037 87.685,346.909 87.394,346.908 87.132 C 346.907 86.871,346.718 86.295,346.487 85.853 C 346.256 85.410,346.067 84.806,346.067 84.510 C 346.067 84.213,345.878 83.898,345.646 83.809 C 345.385 83.709,345.225 83.282,345.225 82.686 C 345.225 82.090,345.064 81.662,344.803 81.562 C 344.567 81.471,344.382 81.053,344.382 80.608 C 344.382 80.172,344.192 79.626,343.961 79.394 C 343.729 79.162,343.539 78.644,343.539 78.242 C 343.539 77.839,343.350 77.438,343.118 77.349 C 342.860 77.250,342.697 76.824,342.697 76.251 C 342.697 75.735,342.570 75.236,342.416 75.140 C 342.261 75.045,342.135 74.674,342.135 74.316 C 342.135 73.957,341.945 73.507,341.713 73.315 C 341.482 73.122,341.292 72.689,341.292 72.351 C 341.292 72.013,341.107 71.491,340.880 71.191 C 340.653 70.891,340.463 70.386,340.458 70.068 C 340.453 69.750,340.264 69.244,340.037 68.944 C 339.810 68.644,339.621 68.110,339.616 67.758 C 339.611 67.406,339.417 67.044,339.185 66.956 C 338.924 66.855,338.764 66.428,338.764 65.832 C 338.764 65.236,338.604 64.808,338.343 64.708 C 338.108 64.618,337.921 64.201,337.921 63.768 C 337.921 63.340,337.732 62.833,337.500 62.640 C 337.268 62.448,337.079 61.927,337.079 61.482 C 337.079 61.038,336.952 60.674,336.798 60.674 C 336.643 60.674,336.517 60.319,336.517 59.885 C 336.517 59.451,336.331 58.851,336.104 58.551 C 335.878 58.251,335.688 57.717,335.683 57.365 C 335.678 57.012,335.485 56.651,335.253 56.562 C 334.992 56.462,334.831 56.035,334.831 55.439 C 334.831 54.843,334.671 54.415,334.410 54.315 C 334.176 54.225,333.989 53.808,333.989 53.375 C 333.989 52.947,333.799 52.440,333.567 52.247 C 333.336 52.055,333.146 51.547,333.146 51.119 C 333.146 50.687,332.959 50.269,332.725 50.179 C 332.459 50.077,332.303 49.647,332.303 49.017 C 332.303 48.386,332.147 47.956,331.882 47.854 C 331.642 47.762,331.461 47.343,331.461 46.880 C 331.461 46.433,331.350 46.067,331.216 46.067 C 331.081 46.067,330.890 45.562,330.791 44.944 C 330.692 44.326,330.486 43.820,330.334 43.820 C 330.181 43.820,330.056 43.455,330.056 43.008 C 330.056 42.544,329.875 42.125,329.635 42.033 C 329.394 41.941,329.213 41.522,329.213 41.054 C 329.213 40.605,329.024 40.080,328.792 39.888 C 328.560 39.695,328.371 39.190,328.371 38.764 C 328.371 38.338,328.181 37.833,327.949 37.640 C 327.718 37.448,327.528 36.927,327.528 36.482 C 327.528 35.951,327.384 35.674,327.107 35.674 C 326.802 35.674,326.685 35.362,326.685 34.551 C 326.685 33.933,326.559 33.427,326.404 33.427 C 326.250 33.427,326.124 33.126,326.124 32.759 C 326.124 32.392,325.934 31.934,325.702 31.742 C 325.471 31.549,325.281 31.037,325.281 30.604 C 325.281 30.170,325.091 29.626,324.860 29.394 C 324.628 29.162,324.438 28.663,324.438 28.285 C 324.438 27.906,324.249 27.440,324.017 27.247 C 323.785 27.055,323.596 26.593,323.596 26.221 C 323.596 25.849,323.406 25.471,323.174 25.382 C 322.913 25.282,322.753 24.855,322.753 24.259 C 322.753 23.663,322.592 23.235,322.331 23.135 C 322.096 23.045,321.910 22.628,321.910 22.191 C 321.910 21.755,321.724 21.337,321.489 21.247 C 321.226 21.146,321.067 20.718,321.067 20.110 C 321.067 19.573,320.941 19.056,320.787 18.961 C 320.632 18.865,320.506 18.503,320.506 18.155 C 320.506 17.807,320.320 17.278,320.093 16.978 C 319.866 16.678,319.677 16.144,319.672 15.792 C 319.667 15.439,319.473 15.078,319.242 14.989 C 318.981 14.889,318.820 14.462,318.820 13.866 C 318.820 13.270,318.660 12.842,318.399 12.742 C 318.165 12.652,317.978 12.235,317.978 11.802 C 317.978 11.374,317.788 10.866,317.556 10.674 C 317.324 10.482,317.135 9.957,317.135 9.507 C 317.135 9.040,316.954 8.621,316.713 8.529 C 316.476 8.437,316.292 8.019,316.292 7.571 C 316.292 7.133,316.180 6.705,316.043 6.621 C 315.906 6.536,315.711 6.023,315.609 5.481 C 315.507 4.938,315.303 4.494,315.156 4.494 C 315.008 4.494,314.888 4.124,314.888 3.672 C 314.888 3.219,314.698 2.660,314.466 2.428 C 314.235 2.196,314.045 1.681,314.045 1.284 C 314.045 0.829,313.889 0.562,313.624 0.562 C 313.392 0.562,313.202 0.435,313.202 0.281 C 313.202 0.096,304.775 0.000,288.483 0.000 L 263.764 0.000 263.764 0.953 M121.529 40.028 C 121.852 40.352,122.668 40.449,125.040 40.449 C 127.412 40.449,128.228 40.547,128.551 40.871 C 128.837 41.157,129.545 41.292,130.755 41.292 C 131.827 41.292,132.579 41.418,132.643 41.609 C 132.701 41.783,133.407 41.988,134.211 42.066 C 135.016 42.143,135.674 42.317,135.674 42.451 C 135.674 42.586,136.227 42.697,136.904 42.697 C 137.654 42.697,138.270 42.861,138.483 43.118 C 138.675 43.350,139.244 43.539,139.747 43.539 C 140.250 43.539,140.819 43.729,141.011 43.961 C 141.204 44.192,141.670 44.382,142.049 44.382 C 142.427 44.382,142.926 44.572,143.158 44.803 C 143.390 45.035,143.936 45.225,144.372 45.225 C 144.817 45.225,145.235 45.409,145.326 45.646 C 145.415 45.878,145.808 46.067,146.199 46.067 C 146.590 46.067,146.910 46.184,146.910 46.326 C 146.910 46.468,147.289 46.668,147.753 46.770 C 148.216 46.871,148.596 47.061,148.596 47.191 C 148.596 47.321,148.973 47.510,149.435 47.612 C 149.897 47.713,150.347 47.913,150.435 48.055 C 150.523 48.198,150.827 48.315,151.110 48.315 C 151.393 48.315,151.698 48.504,151.787 48.736 C 151.876 48.968,152.269 49.157,152.660 49.157 C 153.105 49.157,153.371 49.315,153.371 49.579 C 153.371 49.836,153.633 50.000,154.043 50.000 C 154.413 50.000,154.788 50.190,154.877 50.421 C 154.966 50.653,155.299 50.843,155.618 50.843 C 155.937 50.843,156.270 51.032,156.359 51.264 C 156.448 51.496,156.697 51.685,156.912 51.685 C 157.127 51.685,157.303 51.798,157.303 51.936 C 157.303 52.074,157.598 52.260,157.957 52.350 C 158.317 52.441,158.955 52.834,159.376 53.224 C 159.797 53.614,160.248 53.933,160.378 53.933 C 160.508 53.933,160.687 54.122,160.776 54.354 C 160.865 54.586,161.194 54.775,161.508 54.775 C 161.828 54.775,162.079 54.960,162.079 55.197 C 162.079 55.428,162.268 55.618,162.500 55.618 C 162.732 55.618,162.921 55.722,162.921 55.850 C 162.921 55.977,163.614 56.578,164.460 57.184 C 165.307 57.790,166.002 58.381,166.005 58.497 C 166.009 58.613,166.201 58.708,166.433 58.708 C 166.664 58.708,166.854 58.897,166.854 59.129 C 166.854 59.361,167.044 59.551,167.275 59.551 C 167.507 59.551,167.697 59.740,167.697 59.972 C 167.697 60.204,167.817 60.393,167.964 60.393 C 168.316 60.393,171.629 63.702,171.629 64.054 C 171.629 64.203,171.819 64.326,172.051 64.326 C 172.282 64.326,172.472 64.515,172.472 64.747 C 172.472 64.979,172.662 65.169,172.893 65.169 C 173.125 65.169,173.315 65.358,173.315 65.590 C 173.315 65.822,173.504 66.011,173.736 66.011 C 173.968 66.011,174.157 66.173,174.157 66.370 C 174.157 66.703,174.768 67.495,176.541 69.464 C 176.929 69.895,177.247 70.355,177.247 70.487 C 177.247 70.619,177.437 70.799,177.669 70.888 C 177.900 70.977,178.090 71.293,178.090 71.590 C 178.090 71.888,178.279 72.204,178.511 72.293 C 178.743 72.382,178.933 72.648,178.933 72.884 C 178.933 73.121,179.122 73.315,179.354 73.315 C 179.586 73.315,179.775 73.549,179.775 73.835 C 179.775 74.122,180.091 74.697,180.478 75.114 C 180.864 75.531,181.180 76.046,181.180 76.258 C 181.180 76.471,181.353 76.818,181.564 77.030 C 181.775 77.241,182.037 77.692,182.145 78.033 C 182.253 78.373,182.459 78.652,182.603 78.652 C 182.747 78.652,182.865 78.826,182.865 79.039 C 182.865 79.251,183.055 79.583,183.287 79.775 C 183.518 79.968,183.708 80.362,183.708 80.652 C 183.708 80.942,183.897 81.180,184.129 81.180 C 184.392 81.180,184.551 81.445,184.551 81.886 C 184.551 82.274,184.668 82.811,184.811 83.080 C 184.954 83.348,185.143 83.757,185.231 83.989 C 185.318 84.221,185.496 84.600,185.625 84.831 C 186.387 86.196,186.798 87.191,186.798 87.672 C 186.798 87.973,186.987 88.293,187.219 88.382 C 187.480 88.482,187.640 88.909,187.640 89.505 C 187.640 90.101,187.801 90.529,188.062 90.629 C 188.337 90.734,188.483 91.172,188.483 91.893 C 188.483 92.614,188.629 93.051,188.904 93.157 C 189.188 93.266,189.326 93.711,189.326 94.518 C 189.326 95.242,189.493 95.856,189.747 96.067 C 190.015 96.290,190.169 96.910,190.169 97.771 C 190.169 98.515,190.295 99.202,190.449 99.298 C 190.604 99.393,190.731 100.064,190.732 100.789 C 190.733 101.514,190.923 102.469,191.153 102.911 C 191.431 103.443,191.574 104.539,191.575 106.142 C 191.576 107.744,191.719 108.840,191.996 109.372 C 192.603 110.537,192.603 120.081,191.996 121.246 C 191.713 121.789,191.573 122.916,191.566 124.719 C 191.558 126.617,191.436 127.545,191.143 127.933 C 190.913 128.237,190.730 129.076,190.730 129.829 C 190.730 130.572,190.604 131.180,190.449 131.180 C 190.295 131.180,190.169 131.860,190.169 132.690 C 190.169 133.690,190.026 134.319,189.747 134.551 C 189.490 134.764,189.326 135.380,189.326 136.130 C 189.326 137.036,189.215 137.360,188.904 137.360 C 188.594 137.360,188.483 137.684,188.483 138.594 C 188.483 139.431,188.348 139.879,188.062 139.989 C 187.821 140.082,187.640 140.501,187.640 140.968 C 187.640 141.417,187.451 141.943,187.219 142.135 C 186.987 142.327,186.798 142.785,186.798 143.152 C 186.798 143.520,186.671 143.820,186.517 143.820 C 186.362 143.820,186.236 143.952,186.236 144.113 C 186.236 144.274,185.857 145.217,185.393 146.208 C 184.930 147.199,184.551 148.198,184.551 148.427 C 184.551 148.656,184.416 148.926,184.252 149.028 C 184.088 149.129,183.830 149.484,183.678 149.817 C 183.251 150.754,182.681 151.701,182.336 152.046 C 182.164 152.219,182.022 152.587,182.022 152.865 C 182.022 153.143,181.903 153.371,181.757 153.371 C 181.495 153.371,180.802 154.452,180.452 155.407 C 180.353 155.678,180.160 155.899,180.023 155.899 C 179.887 155.899,179.775 156.215,179.775 156.601 C 179.775 157.038,179.616 157.303,179.354 157.303 C 179.122 157.303,178.933 157.493,178.933 157.725 C 178.933 157.956,178.802 158.146,178.643 158.146 C 178.484 158.146,178.269 158.367,178.167 158.638 C 178.065 158.908,177.847 159.274,177.684 159.452 C 177.521 159.629,177.008 160.244,176.545 160.818 C 176.081 161.392,175.418 162.195,175.071 162.602 C 174.723 163.009,174.439 163.434,174.439 163.546 C 174.438 163.657,173.301 164.887,171.910 166.277 C 170.520 167.667,169.382 168.935,169.382 169.094 C 169.382 169.252,169.192 169.382,168.961 169.382 C 168.729 169.382,168.539 169.572,168.539 169.803 C 168.539 170.035,168.396 170.225,168.220 170.225 C 168.045 170.225,167.609 170.541,167.251 170.927 C 166.893 171.313,166.531 171.629,166.446 171.629 C 166.361 171.629,166.058 171.850,165.772 172.121 C 164.617 173.213,163.411 174.157,163.173 174.157 C 163.035 174.157,162.921 174.332,162.921 174.546 C 162.921 174.760,162.700 175.014,162.430 175.112 C 161.701 175.376,160.725 175.978,159.986 176.621 C 159.626 176.934,159.065 177.274,158.739 177.378 C 158.413 177.481,158.146 177.684,158.146 177.828 C 158.146 177.972,157.956 178.090,157.725 178.090 C 157.493 178.090,157.303 178.279,157.303 178.511 C 157.303 178.771,157.040 178.933,156.615 178.933 C 156.237 178.933,155.826 179.091,155.702 179.284 C 155.439 179.695,154.562 180.284,153.862 180.518 C 153.592 180.609,153.371 180.795,153.371 180.932 C 153.371 181.068,153.127 181.180,152.829 181.180 C 152.531 181.180,152.115 181.338,151.903 181.531 C 151.261 182.118,149.706 182.865,149.126 182.865 C 148.824 182.865,148.505 183.055,148.416 183.287 C 148.327 183.518,147.952 183.708,147.582 183.708 C 147.172 183.708,146.910 183.872,146.910 184.129 C 146.910 184.424,146.613 184.551,145.918 184.551 C 145.296 184.551,144.866 184.707,144.765 184.972 C 144.675 185.206,144.257 185.393,143.825 185.393 C 143.397 185.393,142.889 185.583,142.697 185.815 C 142.504 186.046,141.991 186.236,141.555 186.236 C 141.120 186.236,140.685 186.362,140.590 186.517 C 140.494 186.671,140.069 186.798,139.644 186.798 C 139.219 186.798,138.626 186.983,138.326 187.210 C 138.026 187.437,137.331 187.627,136.781 187.632 C 136.231 187.636,135.536 187.826,135.236 188.053 C 134.926 188.287,134.069 188.469,133.251 188.474 C 132.322 188.480,131.686 188.633,131.461 188.904 C 131.217 189.198,130.571 189.326,129.340 189.326 C 128.140 189.326,127.432 189.462,127.147 189.747 C 126.820 190.074,125.980 190.169,123.388 190.169 C 120.889 190.169,119.914 190.272,119.506 190.581 C 118.734 191.165,113.289 191.165,112.517 190.581 C 112.101 190.267,111.089 190.169,108.263 190.169 C 105.226 190.169,104.525 190.092,104.393 189.747 C 104.274 189.438,103.788 189.326,102.571 189.326 C 101.439 189.326,100.800 189.192,100.562 188.904 C 100.336 188.633,99.700 188.480,98.772 188.474 C 97.953 188.469,97.096 188.287,96.786 188.053 C 96.486 187.826,95.854 187.636,95.382 187.632 C 94.909 187.627,94.277 187.437,93.977 187.210 C 93.677 186.983,93.014 186.798,92.502 186.798 C 91.991 186.798,91.573 186.671,91.573 186.517 C 91.573 186.362,91.209 186.236,90.765 186.236 C 90.320 186.236,89.799 186.046,89.607 185.815 C 89.414 185.583,88.907 185.393,88.479 185.393 C 88.046 185.393,87.629 185.206,87.539 184.972 C 87.444 184.726,87.023 184.551,86.526 184.551 C 86.057 184.551,85.674 184.427,85.674 184.275 C 85.674 184.123,85.328 183.913,84.904 183.806 C 84.481 183.700,83.966 183.445,83.761 183.239 C 83.555 183.033,83.090 182.865,82.728 182.865 C 82.366 182.865,82.027 182.758,81.976 182.628 C 81.881 182.389,81.207 182.000,79.003 180.912 C 78.346 180.588,77.809 180.200,77.809 180.049 C 77.809 179.899,77.493 179.775,77.107 179.775 C 76.670 179.775,76.404 179.616,76.404 179.354 C 76.404 179.122,76.167 178.933,75.877 178.933 C 75.587 178.933,75.192 178.743,75.000 178.511 C 74.808 178.279,74.490 178.090,74.293 178.090 C 74.097 178.090,73.864 177.900,73.775 177.669 C 73.686 177.437,73.450 177.247,73.250 177.247 C 73.051 177.247,72.547 176.931,72.130 176.545 C 71.714 176.159,71.254 175.843,71.110 175.843 C 70.965 175.843,70.774 175.653,70.685 175.421 C 70.596 175.190,70.351 175.000,70.140 175.000 C 69.929 175.000,69.388 174.624,68.937 174.165 C 68.487 173.706,67.960 173.327,67.767 173.322 C 67.574 173.318,67.409 173.157,67.400 172.963 C 67.391 172.770,66.387 171.854,65.169 170.927 C 63.950 170.000,62.946 169.084,62.937 168.890 C 62.928 168.697,62.732 168.539,62.500 168.539 C 62.268 168.539,62.079 168.350,62.079 168.118 C 62.079 167.886,61.889 167.697,61.657 167.697 C 61.426 167.697,61.236 167.574,61.236 167.425 C 61.236 167.276,60.825 166.728,60.323 166.208 C 59.227 165.072,57.865 163.469,57.865 163.314 C 57.865 163.252,57.372 162.709,56.769 162.106 C 56.167 161.504,55.589 160.745,55.486 160.421 C 55.383 160.097,55.181 159.831,55.037 159.831 C 54.893 159.831,54.775 159.642,54.775 159.410 C 54.775 159.178,54.600 158.989,54.387 158.989 C 54.173 158.989,53.924 158.768,53.833 158.497 C 53.653 157.962,53.294 157.367,52.318 155.988 C 51.970 155.496,51.685 154.965,51.685 154.808 C 51.685 154.651,51.527 154.421,51.334 154.298 C 51.141 154.174,50.732 153.567,50.424 152.949 C 50.117 152.331,49.706 151.725,49.511 151.601 C 49.317 151.478,49.157 151.126,49.157 150.820 C 49.157 150.514,48.968 150.191,48.736 150.102 C 48.504 150.013,48.315 149.637,48.315 149.268 C 48.315 148.857,48.150 148.596,47.893 148.596 C 47.612 148.596,47.472 148.315,47.472 147.753 C 47.472 147.289,47.346 146.910,47.191 146.910 C 47.037 146.910,46.910 146.610,46.910 146.242 C 46.910 145.875,46.721 145.417,46.489 145.225 C 46.257 145.032,46.067 144.662,46.067 144.401 C 46.067 144.141,45.882 143.682,45.655 143.382 C 45.428 143.082,45.239 142.503,45.234 142.095 C 45.229 141.686,45.035 141.279,44.803 141.191 C 44.538 141.089,44.382 140.659,44.382 140.028 C 44.382 139.398,44.226 138.967,43.961 138.866 C 43.689 138.761,43.539 138.327,43.539 137.645 C 43.539 137.046,43.356 136.434,43.118 136.236 C 42.878 136.037,42.697 135.424,42.697 134.814 C 42.697 134.224,42.588 133.674,42.456 133.592 C 42.323 133.510,42.141 132.725,42.050 131.846 C 41.960 130.968,41.771 130.174,41.631 130.083 C 41.490 129.991,41.303 128.928,41.214 127.722 C 41.125 126.515,40.902 125.348,40.720 125.127 C 40.251 124.563,40.244 105.357,40.712 105.068 C 40.890 104.957,41.106 103.930,41.190 102.785 C 41.275 101.639,41.522 100.304,41.740 99.817 C 41.957 99.330,42.135 98.484,42.135 97.938 C 42.135 97.391,42.261 96.865,42.416 96.770 C 42.570 96.674,42.697 96.048,42.697 95.379 C 42.697 94.556,42.833 94.109,43.118 94.000 C 43.393 93.894,43.539 93.456,43.539 92.735 C 43.539 92.015,43.685 91.577,43.961 91.471 C 44.239 91.365,44.382 90.925,44.382 90.177 C 44.382 89.358,44.499 89.045,44.803 89.045 C 45.080 89.045,45.225 88.768,45.225 88.237 C 45.225 87.792,45.414 87.271,45.646 87.079 C 45.878 86.886,46.067 86.365,46.067 85.921 C 46.067 85.476,46.169 85.112,46.294 85.112 C 46.571 85.112,47.472 83.128,47.472 82.520 C 47.472 82.279,47.662 82.010,47.893 81.921 C 48.125 81.832,48.315 81.439,48.315 81.048 C 48.315 80.603,48.472 80.337,48.736 80.337 C 49.000 80.337,49.157 80.071,49.157 79.626 C 49.157 79.235,49.347 78.842,49.579 78.753 C 49.810 78.664,50.000 78.348,50.000 78.051 C 50.000 77.754,50.190 77.438,50.421 77.349 C 50.653 77.260,50.843 77.011,50.843 76.796 C 50.843 76.581,50.967 76.404,51.118 76.404 C 51.270 76.404,51.476 76.077,51.576 75.677 C 51.677 75.277,52.058 74.626,52.424 74.232 C 52.790 73.837,53.090 73.279,53.090 72.993 C 53.090 72.706,53.279 72.472,53.511 72.472 C 53.743 72.472,53.933 72.296,53.933 72.081 C 53.933 71.865,54.122 71.617,54.354 71.528 C 54.586 71.439,54.775 71.172,54.775 70.936 C 54.775 70.699,54.899 70.506,55.051 70.506 C 55.202 70.506,55.406 70.190,55.503 69.803 C 55.600 69.417,55.855 69.101,56.070 69.101 C 56.285 69.101,56.461 68.976,56.461 68.822 C 56.461 68.547,56.865 68.030,58.631 66.046 C 59.130 65.486,59.540 64.870,59.544 64.677 C 59.548 64.484,59.740 64.326,59.972 64.326 C 60.204 64.326,60.393 64.136,60.393 63.904 C 60.393 63.673,60.515 63.483,60.663 63.483 C 61.041 63.483,63.483 61.072,63.483 60.699 C 63.483 60.531,63.673 60.393,63.904 60.393 C 64.136 60.393,64.326 60.204,64.326 59.972 C 64.326 59.740,64.515 59.551,64.747 59.551 C 64.979 59.551,65.169 59.361,65.169 59.129 C 65.169 58.897,65.395 58.708,65.673 58.708 C 65.950 58.708,66.719 58.202,67.381 57.584 C 68.044 56.966,68.702 56.461,68.844 56.461 C 68.985 56.461,69.101 56.286,69.101 56.072 C 69.101 55.858,69.322 55.602,69.593 55.503 C 70.548 55.153,71.629 54.460,71.629 54.198 C 71.629 54.052,71.819 53.933,72.051 53.933 C 72.282 53.933,72.472 53.743,72.472 53.511 C 72.472 53.279,72.706 53.090,72.993 53.090 C 73.279 53.090,73.828 52.805,74.212 52.458 C 74.596 52.110,75.404 51.574,76.008 51.267 C 76.612 50.959,77.208 50.549,77.331 50.354 C 77.455 50.159,77.789 50.000,78.074 50.000 C 78.359 50.000,78.664 49.810,78.753 49.579 C 78.842 49.347,79.235 49.157,79.626 49.157 C 80.071 49.157,80.337 49.000,80.337 48.736 C 80.337 48.504,80.547 48.315,80.804 48.315 C 81.436 48.315,83.427 47.420,83.427 47.137 C 83.427 47.012,83.671 46.910,83.969 46.910 C 84.267 46.910,84.700 46.721,84.932 46.489 C 85.164 46.257,85.663 46.067,86.041 46.067 C 86.419 46.067,86.886 45.878,87.079 45.646 C 87.271 45.414,87.796 45.225,88.245 45.225 C 88.713 45.225,89.132 45.044,89.224 44.803 C 89.314 44.569,89.732 44.382,90.164 44.382 C 90.592 44.382,91.100 44.192,91.292 43.961 C 91.493 43.719,92.106 43.539,92.731 43.539 C 93.512 43.539,93.820 43.420,93.820 43.118 C 93.820 42.807,94.146 42.697,95.068 42.697 C 95.754 42.697,96.393 42.570,96.489 42.416 C 96.584 42.261,97.136 42.135,97.716 42.135 C 98.295 42.135,99.014 41.949,99.314 41.722 C 99.652 41.467,100.515 41.307,101.581 41.301 C 102.759 41.295,103.412 41.159,103.652 40.871 C 103.924 40.542,104.693 40.449,107.144 40.449 C 109.472 40.449,110.427 40.343,110.831 40.037 C 111.639 39.426,120.919 39.418,121.529 40.028 M289.767 56.367 C 290.004 56.458,290.169 56.905,290.169 57.457 C 290.169 57.972,290.295 58.472,290.449 58.567 C 290.604 58.663,290.730 58.977,290.730 59.266 C 290.730 59.555,290.920 59.981,291.152 60.213 C 291.383 60.444,291.573 61.026,291.573 61.506 C 291.573 62.021,291.745 62.443,291.994 62.539 C 292.229 62.629,292.416 63.046,292.416 63.479 C 292.416 63.907,292.605 64.414,292.837 64.607 C 293.069 64.799,293.258 65.324,293.258 65.774 C 293.258 66.241,293.439 66.660,293.680 66.752 C 293.941 66.853,294.101 67.280,294.101 67.876 C 294.101 68.472,294.261 68.899,294.522 69.000 C 294.783 69.100,294.944 69.527,294.944 70.123 C 294.944 70.719,295.104 71.147,295.365 71.247 C 295.603 71.338,295.787 71.756,295.787 72.204 C 295.787 72.642,295.913 73.079,296.067 73.174 C 296.222 73.270,296.348 73.632,296.348 73.980 C 296.348 74.327,296.534 74.857,296.761 75.157 C 296.988 75.457,297.177 75.962,297.182 76.281 C 297.187 76.599,297.377 77.104,297.603 77.404 C 297.830 77.704,298.020 78.238,298.025 78.590 C 298.030 78.943,298.223 79.304,298.455 79.393 C 298.711 79.491,298.876 79.916,298.876 80.473 C 298.876 80.978,299.066 81.549,299.298 81.742 C 299.529 81.934,299.719 82.441,299.719 82.870 C 299.719 83.302,299.906 83.720,300.140 83.809 C 300.405 83.911,300.562 84.340,300.562 84.963 C 300.562 85.509,300.688 85.955,300.843 85.955 C 300.997 85.955,301.124 86.247,301.124 86.604 C 301.124 86.960,301.309 87.498,301.536 87.797 C 301.763 88.097,301.952 88.612,301.957 88.940 C 301.962 89.269,302.156 89.695,302.388 89.888 C 302.619 90.080,302.809 90.592,302.809 91.026 C 302.809 91.459,302.999 92.003,303.230 92.235 C 303.462 92.467,303.652 92.966,303.652 93.344 C 303.652 93.723,303.841 94.190,304.073 94.382 C 304.305 94.574,304.494 95.095,304.494 95.540 C 304.494 96.071,304.639 96.348,304.916 96.348 C 305.218 96.348,305.337 96.657,305.337 97.442 C 305.337 98.155,305.484 98.592,305.758 98.697 C 306.002 98.791,306.180 99.211,306.180 99.694 C 306.180 100.153,306.292 100.598,306.429 100.683 C 306.566 100.767,306.761 101.280,306.863 101.823 C 306.965 102.365,307.169 102.809,307.316 102.809 C 307.464 102.809,307.584 103.179,307.584 103.632 C 307.584 104.084,307.774 104.644,308.006 104.876 C 308.237 105.107,308.427 105.622,308.427 106.019 C 308.427 106.474,308.583 106.742,308.848 106.742 C 309.153 106.742,309.270 107.055,309.270 107.874 C 309.270 108.621,309.413 109.061,309.691 109.168 C 309.925 109.258,310.112 109.675,310.112 110.108 C 310.112 110.536,310.302 111.044,310.534 111.236 C 310.765 111.428,310.955 111.942,310.955 112.377 C 310.955 112.813,311.067 113.238,311.204 113.323 C 311.341 113.408,311.536 113.921,311.638 114.463 C 311.740 115.006,311.944 115.449,312.091 115.449 C 312.239 115.449,312.360 115.813,312.360 116.258 C 312.360 116.702,312.549 117.223,312.781 117.416 C 313.013 117.608,313.202 118.114,313.202 118.539 C 313.202 118.965,313.392 119.471,313.624 119.663 C 313.855 119.855,314.045 120.380,314.045 120.830 C 314.045 121.297,314.225 121.716,314.466 121.809 C 314.703 121.899,314.888 122.317,314.888 122.763 C 314.888 123.199,315.077 123.745,315.309 123.977 C 315.541 124.208,315.730 124.727,315.730 125.129 C 315.730 125.531,315.920 125.933,316.152 126.022 C 316.410 126.121,316.573 126.547,316.573 127.120 C 316.573 127.635,316.699 128.135,316.854 128.230 C 317.008 128.326,317.135 128.697,317.135 129.055 C 317.135 129.413,317.324 129.864,317.556 130.056 C 317.788 130.249,317.978 130.754,317.978 131.180 C 317.978 131.605,318.167 132.111,318.399 132.303 C 318.631 132.496,318.820 133.001,318.820 133.427 C 318.820 133.853,319.010 134.358,319.242 134.551 C 319.473 134.743,319.663 135.205,319.663 135.577 C 319.663 135.949,319.853 136.326,320.084 136.415 C 320.316 136.504,320.506 136.753,320.506 136.968 C 320.506 137.300,315.769 137.360,289.185 137.360 C 258.733 137.360,257.865 137.345,257.865 136.832 C 257.865 136.542,258.055 136.147,258.287 135.955 C 258.518 135.763,258.708 135.257,258.708 134.831 C 258.708 134.406,258.897 133.900,259.129 133.708 C 259.361 133.516,259.551 132.931,259.551 132.409 C 259.551 131.753,259.681 131.461,259.972 131.461 C 260.249 131.461,260.393 131.184,260.393 130.652 C 260.393 130.208,260.583 129.687,260.815 129.494 C 261.046 129.302,261.236 128.796,261.236 128.371 C 261.236 127.945,261.426 127.440,261.657 127.247 C 261.889 127.055,262.079 126.534,262.079 126.089 C 262.079 125.645,262.199 125.281,262.347 125.281 C 262.494 125.281,262.698 124.837,262.800 124.295 C 262.902 123.752,263.097 123.239,263.234 123.154 C 263.371 123.070,263.483 122.579,263.483 122.064 C 263.483 121.491,263.647 121.065,263.904 120.966 C 264.169 120.864,264.326 120.435,264.326 119.812 C 264.326 119.118,264.452 118.820,264.747 118.820 C 265.039 118.820,265.169 118.528,265.169 117.871 C 265.169 117.350,265.358 116.765,265.590 116.573 C 265.822 116.381,266.011 115.938,266.011 115.590 C 266.011 115.241,266.201 114.799,266.433 114.607 C 266.664 114.414,266.854 113.844,266.854 113.338 C 266.854 112.781,267.020 112.356,267.275 112.258 C 267.507 112.169,267.701 111.808,267.706 111.455 C 267.710 111.103,267.900 110.569,268.127 110.269 C 268.354 109.969,268.539 109.432,268.539 109.076 C 268.539 108.719,268.666 108.427,268.820 108.427 C 268.975 108.427,269.101 108.000,269.101 107.478 C 269.101 106.956,269.291 106.372,269.522 106.180 C 269.754 105.987,269.944 105.480,269.944 105.052 C 269.944 104.619,270.131 104.202,270.365 104.112 C 270.626 104.012,270.787 103.584,270.787 102.988 C 270.787 102.392,270.947 101.965,271.208 101.865 C 271.449 101.772,271.629 101.353,271.629 100.886 C 271.629 100.436,271.819 99.911,272.051 99.719 C 272.282 99.527,272.476 99.100,272.481 98.772 C 272.486 98.443,272.675 97.929,272.902 97.629 C 273.129 97.329,273.315 96.729,273.315 96.295 C 273.315 95.861,273.441 95.506,273.596 95.506 C 273.750 95.506,273.876 95.140,273.876 94.693 C 273.876 94.230,274.058 93.811,274.298 93.719 C 274.559 93.618,274.719 93.191,274.719 92.595 C 274.719 91.999,274.879 91.572,275.140 91.471 C 275.419 91.365,275.562 90.925,275.562 90.177 C 275.562 89.358,275.678 89.045,275.983 89.045 C 276.248 89.045,276.404 88.777,276.404 88.323 C 276.404 87.925,276.594 87.411,276.826 87.179 C 277.058 86.947,277.247 86.442,277.247 86.055 C 277.247 85.669,277.437 85.164,277.669 84.932 C 277.900 84.700,278.090 84.194,278.090 83.808 C 278.090 83.422,278.279 82.916,278.511 82.685 C 278.743 82.453,278.933 82.027,278.933 81.738 C 278.933 81.449,279.059 81.135,279.213 81.039 C 279.368 80.944,279.494 80.368,279.494 79.759 C 279.494 78.962,279.612 78.652,279.916 78.652 C 280.194 78.652,280.337 78.373,280.337 77.829 C 280.337 77.377,280.527 76.817,280.758 76.585 C 280.990 76.353,281.180 75.854,281.180 75.476 C 281.180 75.097,281.369 74.631,281.601 74.438 C 281.833 74.246,282.022 73.779,282.022 73.401 C 282.022 73.022,282.212 72.523,282.444 72.291 C 282.676 72.060,282.865 71.573,282.865 71.211 C 282.865 70.848,283.076 70.130,283.334 69.615 C 283.592 69.101,283.908 68.460,284.036 68.192 C 284.165 67.924,284.270 67.323,284.270 66.858 C 284.270 66.293,284.410 66.011,284.691 66.011 C 284.974 66.011,285.112 65.728,285.112 65.148 C 285.112 64.674,285.302 64.096,285.534 63.864 C 285.765 63.633,285.955 63.152,285.955 62.795 C 285.955 62.439,286.145 61.990,286.376 61.798 C 286.608 61.605,286.798 61.035,286.798 60.529 C 286.798 59.972,286.963 59.547,287.219 59.449 C 287.451 59.360,287.644 58.999,287.649 58.646 C 287.654 58.294,287.844 57.760,288.071 57.460 C 288.298 57.160,288.483 56.685,288.483 56.403 C 288.483 55.417,289.169 54.620,289.276 55.483 C 289.326 55.884,289.547 56.282,289.767 56.367 " stroke="none" fill="#045cac" fill-rule="evenodd"></path><path id="path1" d="" stroke="none" fill="#085cac" fill-rule="evenodd"></path><path id="path2" d="" stroke="none" fill="#085cac" fill-rule="evenodd"></path><path id="path3" d="" stroke="none" fill="#085cac" fill-rule="evenodd"></path><path id="path4" d="" stroke="none" fill="#085cac" fill-rule="evenodd"></path></g></svg>